<svg width="125" height="126" viewBox="0 0 125 126" fill="none" xmlns="http://www.w3.org/2000/svg">
<path d="M1.45131 125.014C0.669881 124.403 -0.0749298 123.735 0.373783 122.587C0.822496 121.439 1.72908 121.351 2.76082 121.351C6.72902 121.351 10.6972 121.333 14.6654 121.317H32.3698H37.7635H53.6149H58.7034C59.1888 121.333 59.6771 121.36 60.1625 121.36H98.6236C101.066 121.36 103.489 121.336 105.925 121.32C111.386 121.336 116.85 121.369 122.314 121.345C123.449 121.345 124.386 121.552 125 122.566V125.008L1.45131 125.014Z" fill="#29B188"/>
<path d="M105.943 121.317C103.501 121.333 101.059 121.354 98.6415 121.357H60.1835C59.6981 121.357 59.2097 121.33 58.7244 121.314C58.7244 109.37 58.7244 97.4227 58.7518 85.4753C58.7518 84.4527 59.0571 83.4302 59.2158 82.4229L59.7103 82.374H79.7864L102.323 82.4137C105.155 82.4137 105.967 83.2134 105.964 86.0034C105.956 97.7696 105.949 109.541 105.943 121.317ZM79.6918 104.529C85.1313 104.529 90.5718 104.529 96.0133 104.529C97.3778 104.529 98.2141 103.842 98.2111 102.792C98.2111 101.614 97.4022 100.881 96.0316 100.881C85.2279 100.881 74.4273 100.881 63.6297 100.881C62.2042 100.881 61.4044 101.565 61.4075 102.713C61.4105 103.86 62.1798 104.544 63.6114 104.544L79.6918 104.529ZM79.8047 95.0235H90.4029C92.268 95.0235 94.1361 95.0235 96.0011 95.0235C97.3717 95.0235 98.2111 94.3489 98.2141 93.3049C98.2141 92.1206 97.4144 91.4032 96.053 91.3696H63.9014C63.6583 91.3574 63.4148 91.3574 63.1718 91.3696C62.7272 91.418 62.3157 91.6274 62.0149 91.9582C61.714 92.2891 61.5446 92.7186 61.5386 93.1658C61.5326 93.6129 61.6904 94.0468 61.9823 94.3857C62.2741 94.7245 62.6799 94.9448 63.123 95.0051C63.4473 95.025 63.7724 95.025 64.0967 95.0051L79.8047 95.0235ZM79.8505 114.034C85.29 114.034 90.7326 114.034 96.1721 114.034C97.274 114.034 97.9761 113.567 98.1897 112.526C98.4034 111.485 97.68 110.637 96.4956 110.414C96.1741 110.369 95.8491 110.355 95.5249 110.371H64.0845C62.2286 110.371 61.3739 110.982 61.3953 112.245C61.4166 113.509 62.1981 114.025 64.0021 114.025L79.8505 114.034Z" fill="#FE788F"/>
<path d="M66.5212 82.3589H59.702C59.1403 82.1971 58.5817 81.898 58.0231 81.8949C52.2631 81.8613 46.5031 81.8491 40.7462 81.8949C39.9983 81.8949 39.2566 82.3528 38.5118 82.6H37.7761V75.2741H38.5148C39.1772 75.5213 39.8365 75.9731 40.502 75.9792C46.4543 76.0372 52.4066 76.0158 58.365 76.0097C59.6135 76.0097 60.3827 75.3596 60.4315 74.3004C60.4834 73.1557 59.821 72.4689 58.481 72.3468C58.072 72.1056 57.6629 71.663 57.26 71.6569C51.9915 71.6101 46.7209 71.6101 41.4482 71.6569C41.0361 71.6569 40.6271 72.1056 40.2272 72.3468L38.7712 72.8474H37.8005V66.0343L38.5392 65.7779C39.1986 66.0251 39.8579 66.4799 40.5203 66.486C46.4299 66.544 52.3364 66.5166 58.2429 66.5227C59.2747 66.5227 60.1477 66.193 60.4102 65.1582C60.7154 64.0105 60.1049 63.226 58.9938 62.8567C58.5848 62.6155 58.1758 62.1698 57.7728 62.1637C52.1746 62.119 46.5784 62.119 40.9843 62.1637C40.5722 62.1637 40.1631 62.6155 39.7633 62.8597L38.7926 63.3542H37.8219V56.2847H38.7712C39.3023 56.5289 39.8304 56.9776 40.3646 56.9807C46.3993 57.0325 52.431 57.0234 58.4657 57.0051C59.6165 57.0051 60.3644 56.3183 60.4712 55.2987C60.5781 54.2792 59.9706 53.626 58.771 53.3482C58.4413 53.1498 58.1117 52.7835 57.7789 52.7805C52.1929 52.7459 46.6059 52.7459 41.0178 52.7805C40.5997 52.7805 40.1815 53.1467 39.7633 53.3452H39.2901L38.0691 53.5833C37.9898 51.3061 37.9125 49.031 37.8372 46.7579H38.7895C39.3603 46.9991 39.9312 47.4478 40.5081 47.4539C46.4299 47.5058 52.3547 47.4905 58.2795 47.4814C59.6684 47.4814 60.4682 46.7762 60.4926 45.601C60.514 44.493 59.6806 43.8306 58.2399 43.8306C52.3588 43.8306 46.4746 43.8306 40.5874 43.8306C40.0735 43.8718 39.5633 43.9514 39.0612 44.0687H38.0753V37.9638L38.5545 37.2312L39.2901 36.2635L39.5466 35.7965L43.4323 35.769H61.0542C61.7044 35.769 62.3546 35.769 63.0017 35.7935C65.4437 35.8484 66.5792 36.9748 66.5823 39.3984C66.5823 43.0614 66.5823 46.706 66.5823 50.3598L66.5212 82.3589Z" fill="#BFCCCD"/>
<path d="M32.3815 121.321H19.7321C19.7321 118.895 19.7321 116.471 19.7321 114.05H26.2705C27.3022 114.05 28.1234 113.518 28.16 112.545C28.1814 111.934 27.6044 111.226 27.1252 110.728C26.8474 110.442 26.2095 110.423 25.7546 110.408C23.7858 110.374 21.8139 110.408 19.7932 110.408V104.541C22.0032 104.541 24.149 104.541 26.2919 104.541C27.3236 104.541 28.0226 104.004 28.2119 103.015C28.2671 102.817 28.2818 102.61 28.2549 102.406C28.2281 102.202 28.1603 102.005 28.0557 101.828C27.951 101.651 27.8117 101.497 27.646 101.375C27.4804 101.254 27.2918 101.166 27.0916 101.119C26.671 100.983 26.2331 100.908 25.7913 100.897C23.8133 100.872 21.8231 100.897 19.7962 100.897V95.0358C21.8963 95.0358 23.9537 95.0358 26.0141 95.0358C27.3999 95.0358 28.2729 94.2971 28.2546 93.186C28.2363 92.0749 27.3786 91.3911 25.9653 91.385C23.914 91.385 21.8597 91.385 19.784 91.385V85.5304C21.6918 85.5304 23.5477 85.5304 25.4036 85.5304C26.6887 85.5304 27.5403 84.755 27.5403 83.6989C27.5403 82.6427 26.6826 81.9071 25.3731 81.8979C23.5233 81.8827 21.6735 81.8979 19.7962 81.8979V76.025C21.7071 76.025 23.563 76.025 25.4189 76.025C26.704 76.025 27.5556 75.2527 27.5556 74.1935C27.5556 73.1343 26.6979 72.4017 25.3914 72.3926C23.5386 72.3773 21.6888 72.3926 19.7596 72.3926C19.7596 70.7351 19.8298 69.1142 19.7382 67.5086C19.665 66.2205 20.1076 65.3078 21.2003 64.6729H32.3999C32.3836 83.5412 32.3775 102.424 32.3815 121.321Z" fill="#F9C049"/>
<path d="M32.382 121.32C32.382 102.423 32.382 83.5276 32.382 64.6328C32.382 56.324 32.4767 48.0151 32.382 39.7063C32.3424 36.6264 33.9999 35.6862 36.3503 35.8175C36.8356 35.8419 37.324 35.8175 37.8093 35.8175L39.5096 35.8389L39.2532 36.3059L38.4931 37.2857L38.0139 38.0183C38.0139 40.0533 38.0139 42.0883 38.0139 44.1233C37.9345 45.0146 37.8572 45.9079 37.7819 46.8033C37.8592 49.0764 37.9365 51.3515 38.0139 53.6286C37.9345 54.52 37.8572 55.4133 37.7819 56.3087V121.326L32.382 121.32Z" fill="#AEBBBB"/>
<path d="M21.1705 64.6418C20.0777 65.2767 19.6442 66.1894 19.7083 67.4775C19.7999 69.0892 19.7297 70.7101 19.7297 72.3615C21.6588 72.3615 23.5086 72.3615 25.3615 72.3615C26.668 72.3615 27.4982 73.091 27.5257 74.1624C27.5532 75.2338 26.6893 75.9939 25.389 75.9939C23.5331 76.0092 21.6772 75.9939 19.7663 75.9939V81.8424C21.6436 81.8424 23.4934 81.8424 25.3432 81.8424C26.6527 81.8424 27.4952 82.5689 27.5104 83.6434C27.5257 84.7178 26.6741 85.4749 25.3737 85.4749C23.5178 85.4901 21.6619 85.4749 19.7541 85.4749V91.3234C21.8298 91.3234 23.8841 91.3234 25.9354 91.3234C27.3487 91.3234 28.2094 92.0163 28.2247 93.1243C28.24 94.2324 27.37 94.9558 25.9842 94.9741C23.9238 94.9741 21.8664 94.9741 19.7663 94.9741V100.823C21.8084 100.823 23.7834 100.823 25.7614 100.823C26.2032 100.835 26.6411 100.91 27.0617 101.046C27.2619 101.093 27.4505 101.18 27.6162 101.302C27.7818 101.423 27.9211 101.578 28.0258 101.755C28.1304 101.932 28.1982 102.128 28.225 102.332C28.2519 102.536 28.2372 102.743 28.182 102.941C27.9927 103.927 27.2937 104.467 26.262 104.467C24.1252 104.467 21.9733 104.467 19.7633 104.467V110.316C21.784 110.316 23.7559 110.298 25.7247 110.316C26.1948 110.316 26.8175 110.349 27.0953 110.636C27.5745 111.134 28.1515 111.857 28.1301 112.453C28.0935 113.426 27.2723 113.954 26.2406 113.957H19.7297C19.7297 116.375 19.7297 118.799 19.7297 121.228H14.6626C14.6626 103.321 14.6626 85.4209 14.6626 67.5294C14.6626 65.3011 15.4593 64.5014 17.6479 64.5044C18.817 64.5929 19.9953 64.6235 21.1705 64.6418Z" fill="#F7A84A"/>
<path d="M95.2872 8.11963C102.161 9.40167 106.826 14.8717 106.719 21.52C106.612 27.982 101.316 33.9527 95.3085 34.377C95.0018 34.1945 94.6801 34.0383 94.347 33.9099C91.8948 33.1553 89.7147 31.7042 88.0721 29.7332C86.4294 27.7622 85.3951 25.3562 85.095 22.8081C84.4845 17.3137 87.2867 11.6605 92.6224 9.35587C93.5107 8.96821 94.3898 8.53476 95.2872 8.11963Z" fill="#F9C049"/>
<path d="M60.993 35.8027H43.3711C43.3711 32.9364 43.3711 30.0701 43.3711 27.2008C43.3711 25.9798 43.2429 24.7191 44.0976 23.666L45.0499 23.605H50.4467H53.6335C55.1597 23.6202 56.7043 23.6294 58.2397 23.6477C60.2329 23.6752 60.9533 24.3864 60.9655 26.3369C60.9798 29.4932 60.9889 32.6484 60.993 35.8027Z" fill="#A5AFAF"/>
<path d="M79.778 82.3582H71.3989C71.3989 73.0827 71.4071 63.8063 71.4234 54.5288C73.8653 56.5801 76.3134 58.6303 78.7676 60.6795C79.662 61.4335 79.778 62.453 79.7749 63.5428C79.7668 69.8166 79.7678 76.0884 79.778 82.3582Z" fill="#1B9AAE"/>
<path d="M71.4228 54.5292C71.4228 63.8066 71.4146 73.0831 71.3984 82.3585H66.5144V50.3931L71.4228 54.5292Z" fill="#0E7C95"/>
<path d="M95.287 8.1196C94.3988 8.53474 93.5196 8.96819 92.6222 9.35585C87.2865 11.6605 84.4843 17.2923 85.0948 22.8081C85.395 25.3562 86.4293 27.7622 88.0719 29.7332C89.7145 31.7042 91.8946 33.1553 94.3469 33.9099C94.68 34.0382 95.0016 34.1945 95.3084 34.3769C92.1765 35.0332 89.2737 34.3281 86.5936 32.7286C81.5784 29.7372 79.3684 24.4289 80.278 19.0291C80.7387 16.244 82.0794 13.6796 84.1037 11.7119C86.128 9.74425 88.7293 8.47674 91.5264 8.09518C92.7443 7.92119 94.0233 8.10129 95.287 8.1196Z" fill="#F7A749"/>
<path d="M44.0942 23.6722C43.2395 24.7253 43.3616 25.9738 43.3678 27.207C43.3678 30.0763 43.3678 32.9426 43.3678 35.8089L39.482 35.8363L37.7817 35.815C37.7817 32.6099 37.7817 29.4058 37.7817 26.2027C37.7817 24.2675 38.4075 23.6387 40.3153 23.6387C41.579 23.6387 42.8366 23.66 44.0942 23.6722Z" fill="#989F9F"/>
<path d="M47.507 14.5907V3.17446C47.4902 2.85111 47.4902 2.52712 47.507 2.20378C47.6291 0.982788 48.3922 0.19525 49.3965 0.237985C50.4007 0.280719 51.1394 1.09573 51.1455 2.32587C51.1639 6.41618 51.1455 10.5034 51.1455 14.5937L47.507 14.5907Z" fill="#A4D8F3"/>
<path d="M47.5073 14.5913H51.1702C50.4071 16.1175 50.3736 17.7415 50.4224 19.3928C50.4651 20.797 50.4224 22.2042 50.4224 23.6083H45.0256C45.0256 21.4268 45.0307 19.2443 45.0409 17.0608C45.0684 15.1804 45.5659 14.6798 47.5073 14.5913Z" fill="#AFBBBB"/>
<path d="M50.4434 23.619C50.4434 22.2149 50.474 20.8077 50.4434 19.4036C50.3946 17.7522 50.4434 16.1222 51.1913 14.6021C53.1418 14.9073 53.6332 15.4537 53.6332 17.331C53.6332 19.4229 53.6332 21.5149 53.6332 23.6068L50.4434 23.619Z" fill="#BFCCCD"/>
<path d="M37.7761 121.314V82.6055H38.5118C38.0966 84.8582 38.6552 85.5236 40.9537 85.5236H53.5696V91.3691C49.2381 91.3691 44.9067 91.3264 40.5752 91.4149C39.8854 91.4149 38.9269 91.8361 38.5759 92.3764C37.7029 93.7165 38.6827 95.0168 40.4531 95.0229C44.8243 95.0229 49.1984 95.0229 53.5787 95.0229V100.868C49.3694 100.868 45.16 100.868 40.9507 100.868C40.3881 100.862 39.8287 100.952 39.2962 101.134C39.0775 101.216 38.8791 101.345 38.7148 101.512C38.5505 101.678 38.4242 101.878 38.3444 102.098C38.2647 102.318 38.2334 102.552 38.2528 102.785C38.2722 103.018 38.3418 103.244 38.4568 103.448C38.8994 104.339 39.6778 104.525 40.5935 104.522C44.925 104.504 49.2565 104.522 53.5879 104.522V110.368C49.2931 110.368 44.9952 110.368 40.7004 110.368C39.223 110.368 38.2218 111.216 38.2737 112.364C38.3225 113.387 39.2382 114.015 40.7004 114.018H53.5879L53.6337 121.289L37.7761 121.314Z" fill="#BFCCCD"/>
<path d="M53.5808 110.39V85.5333C53.7365 83.1585 54.5576 82.374 56.905 82.374C57.6711 82.374 58.4312 82.3954 59.2065 82.4076C59.0447 83.4302 58.7456 84.4527 58.7425 85.4601C58.7059 97.4074 58.7181 109.355 58.7151 121.299H53.6266L53.5808 114.028V110.39Z" fill="#FB5C70"/>
<path d="M79.6888 104.54H63.6084C62.1768 104.54 61.4076 103.899 61.4045 102.709C61.4015 101.518 62.2013 100.877 63.6268 100.877C74.4264 100.877 85.227 100.877 96.0287 100.877C97.3993 100.877 98.202 101.61 98.2081 102.788C98.2081 103.838 97.3748 104.522 96.0104 104.525C90.5709 104.543 85.1304 104.549 79.6888 104.54Z" fill="#FB5B6F"/>
<path d="M79.802 95.0353H64.0971C63.7728 95.0551 63.4476 95.0551 63.1233 95.0353C62.6802 94.975 62.2745 94.7546 61.9826 94.4158C61.6908 94.077 61.533 93.6431 61.539 93.1959C61.545 92.7487 61.7144 92.3192 62.0152 91.9884C62.3161 91.6575 62.7276 91.4482 63.1722 91.3998C63.4152 91.3876 63.6587 91.3876 63.9017 91.3998H96.0473C97.4087 91.4334 98.2115 92.1507 98.2084 93.335C98.2084 94.379 97.3659 95.0444 95.9954 95.0536C94.1303 95.0536 92.2622 95.0536 90.3971 95.0536L79.802 95.0353Z" fill="#FB5B6F"/>
<path d="M79.8479 114.046H64.0117C62.2077 114.046 61.4263 113.512 61.4049 112.267C61.3836 111.021 62.2383 110.392 64.0942 110.392H95.5346C95.8588 110.376 96.1838 110.39 96.5053 110.435C97.6896 110.658 98.41 111.503 98.1994 112.547C97.9888 113.591 97.2837 114.074 96.1817 114.055C90.73 114.034 85.2874 114.046 79.8479 114.046Z" fill="#FB5B6F"/>
<path d="M59.2068 82.4072C58.4407 82.4072 57.6806 82.3736 56.9053 82.3736C54.5579 82.3736 53.7368 83.1581 53.5812 85.5329H40.9531C38.6424 85.5329 38.0838 84.8675 38.5111 82.6148C39.2559 82.3675 39.9977 81.9188 40.7455 81.9097C46.5025 81.8517 52.2625 81.8639 58.0225 81.9097C58.5811 81.9097 59.1397 82.2149 59.7013 82.3736L59.2068 82.4072Z" fill="#A5AEAE"/>
<path d="M58.4805 72.3585C59.8052 72.4898 60.4829 73.1674 60.431 74.3121C60.3822 75.3713 59.6129 76.0215 58.3645 76.0215C52.4091 76.0215 46.4599 76.049 40.5014 75.991C39.836 75.991 39.1767 75.5331 38.5112 75.2858C38.5906 74.4769 38.6669 73.668 38.7463 72.8439L40.2023 72.3433L58.4805 72.3585Z" fill="#A5AFAF"/>
<path d="M58.9631 62.8564C60.0864 63.2258 60.6695 64.0103 60.3795 65.158C60.117 66.1928 59.244 66.5255 58.2122 66.5225C52.3057 66.5225 46.3992 66.5438 40.4896 66.4858C39.8272 66.4858 39.1679 66.0249 38.5085 65.7777C38.5849 64.9718 38.6642 64.1629 38.7405 63.354L39.7112 62.8595L58.9631 62.8564Z" fill="#A5AFAF"/>
<path d="M38.991 44.0994C39.4931 43.982 40.0032 43.9025 40.5172 43.8613C46.4024 43.847 52.2865 43.847 58.1696 43.8613C59.6104 43.8613 60.4437 44.5237 60.4223 45.6317C60.3979 46.8069 59.5982 47.512 58.2093 47.512C52.2845 47.512 46.3596 47.5364 40.4378 47.4845C39.8609 47.4845 39.2901 47.0297 38.7193 46.7886C38.0081 45.8057 38.2675 44.9327 38.991 44.0994Z" fill="#A5AFAF"/>
<path d="M58.7247 53.3477C59.9243 53.6254 60.5287 54.3183 60.4249 55.2982C60.3211 56.278 59.5702 57.0015 58.4194 57.0045C52.3847 57.0228 46.353 57.032 40.3183 56.9801C39.7841 56.9801 39.256 56.5283 38.7249 56.2841C37.8794 55.1303 38.4197 54.2237 39.2438 53.366H39.717L58.7247 53.3477Z" fill="#A5AFAF"/>
<path d="M58.963 62.8565H39.7324C40.1415 62.6123 40.5505 62.1666 40.9534 62.1605C46.5476 62.1158 52.1438 62.1158 57.742 62.1605C58.151 62.1697 58.56 62.6215 58.963 62.8565Z" fill="#BFCCCD"/>
<path d="M58.4803 72.3588H40.2021C40.6142 72.1176 41.0233 71.675 41.4231 71.6689C46.6937 71.6221 51.9643 71.6221 57.2349 71.6689C57.6623 71.675 58.0713 72.1176 58.4803 72.3588Z" fill="#BFCCCD"/>
<path d="M58.7252 53.3476H39.7175C40.1357 53.1492 40.5539 52.786 40.9721 52.7829C46.5622 52.7442 52.1492 52.7442 57.7332 52.7829C58.0659 52.7829 58.3956 53.1584 58.7252 53.3476Z" fill="#BFCCCD"/>
<path d="M39.2444 53.3662C38.4141 54.224 37.8799 55.1305 38.7254 56.2844H37.7761C37.8535 55.389 37.9308 54.4956 38.0081 53.6043L39.2444 53.3662Z" fill="#BFCCCD"/>
<path d="M38.991 44.0986C38.2676 44.932 38.0081 45.805 38.7285 46.7787H37.7761C37.8535 45.8853 37.9308 44.992 38.0081 44.0986H38.991Z" fill="#BFCCCD"/>
<path d="M38.7468 63.3541C38.6705 64.163 38.5911 64.9719 38.5148 65.7778L37.7761 66.0342V63.3511L38.7468 63.3541Z" fill="#BFCCCD"/>
<path d="M38.7468 72.8589C38.6674 73.6678 38.5911 74.4767 38.5118 75.3009H37.7761V72.8589H38.7468Z" fill="#BFCCCD"/>
<path d="M38.4932 37.286L39.2288 36.3184L38.4932 37.286Z" fill="#BFCCCD"/>
<path d="M38.0144 38.0026L38.4936 37.27L38.0144 38.0026Z" fill="#BFCCCD"/>
<path d="M53.5812 91.3789V95.0419C49.2101 95.0419 44.8359 95.0419 40.4556 95.0419C38.6852 95.0419 37.7084 93.7354 38.5783 92.3954C38.9294 91.8551 39.8879 91.4461 40.5777 91.4339C44.9214 91.3362 49.2498 91.3789 53.5812 91.3789Z" fill="#A5AFAF"/>
<path d="M53.5816 100.884V104.547C49.2502 104.547 44.9187 104.547 40.5873 104.547C39.6715 104.547 38.9023 104.364 38.4505 103.473C38.3355 103.269 38.266 103.043 38.2466 102.81C38.2272 102.577 38.2584 102.342 38.3381 102.123C38.4179 101.903 38.5442 101.703 38.7085 101.537C38.8728 101.37 39.0712 101.241 39.29 101.159C39.8224 100.977 40.3818 100.887 40.9444 100.893C45.1629 100.875 49.3723 100.884 53.5816 100.884Z" fill="#A5AFAF"/>
<path d="M53.5818 110.389V114.052H40.6943C39.2321 114.052 38.3164 113.42 38.2676 112.398C38.2157 111.25 39.2169 110.404 40.6943 110.401C44.9891 110.383 49.287 110.389 53.5818 110.389Z" fill="#A5AFAF"/>
</svg>
