<svg width="49" height="31" viewBox="0 0 49 31" fill="none" xmlns="http://www.w3.org/2000/svg">
<g filter="url(#filter0_ii_5401_4954)">
<path fill-rule="evenodd" clip-rule="evenodd" d="M20.0682 29.9261V29.9267H10.5872C5.02642 29.9267 0.518555 25.4188 0.518555 19.8581V19.5643C0.518555 14.1658 4.89489 9.78946 10.2934 9.78946C12.0119 9.78946 13.6268 10.2329 15.03 11.0117C16.7225 5.12805 22.1453 0.82373 28.5735 0.82373C36.3557 0.82373 42.6645 7.13249 42.6645 14.9147V15.3749C42.6645 23.4113 36.1497 29.9261 28.1133 29.9261H20.0682Z" fill="white"/>
</g>
<g filter="url(#filter1_ii_5401_4954)">
<path fill-rule="evenodd" clip-rule="evenodd" d="M36.8435 30.1467V30.1471H42.2683C45.45 30.1471 48.0293 27.5679 48.0293 24.3862V24.2181C48.0293 21.1292 45.5253 18.6252 42.4364 18.6252C41.4532 18.6252 40.5293 18.8789 39.7265 19.3244C38.7581 15.9579 35.6553 13.4951 31.9773 13.4951C27.5245 13.4951 23.9149 17.1048 23.9149 21.5576V21.8209C23.9149 26.4191 27.6424 30.1467 32.2406 30.1467H36.8435Z" fill="url(#paint0_radial_5401_4954)"/>
</g>
<defs>
<filter id="filter0_ii_5401_4954" x="-17.4814" y="-14.1763" width="68.146" height="55.103" filterUnits="userSpaceOnUse" color-interpolation-filters="sRGB">
<feFlood flood-opacity="0" result="BackgroundImageFix"/>
<feBlend mode="normal" in="SourceGraphic" in2="BackgroundImageFix" result="shape"/>
<feColorMatrix in="SourceAlpha" type="matrix" values="0 0 0 0 0 0 0 0 0 0 0 0 0 0 0 0 0 0 127 0" result="hardAlpha"/>
<feOffset dx="8" dy="-15"/>
<feGaussianBlur stdDeviation="15"/>
<feComposite in2="hardAlpha" operator="arithmetic" k2="-1" k3="1"/>
<feColorMatrix type="matrix" values="0 0 0 0 0 0 0 0 0 0 0 0 0 0 0 0 0 0 0.2 0"/>
<feBlend mode="normal" in2="shape" result="effect1_innerShadow_5401_4954"/>
<feColorMatrix in="SourceAlpha" type="matrix" values="0 0 0 0 0 0 0 0 0 0 0 0 0 0 0 0 0 0 127 0" result="hardAlpha"/>
<feOffset dx="-18" dy="11"/>
<feGaussianBlur stdDeviation="15"/>
<feComposite in2="hardAlpha" operator="arithmetic" k2="-1" k3="1"/>
<feColorMatrix type="matrix" values="0 0 0 0 1 0 0 0 0 1 0 0 0 0 1 0 0 0 1 0"/>
<feBlend mode="normal" in2="effect1_innerShadow_5401_4954" result="effect2_innerShadow_5401_4954"/>
</filter>
<filter id="filter1_ii_5401_4954" x="5.91504" y="-1.50488" width="50.1143" height="42.6521" filterUnits="userSpaceOnUse" color-interpolation-filters="sRGB">
<feFlood flood-opacity="0" result="BackgroundImageFix"/>
<feBlend mode="normal" in="SourceGraphic" in2="BackgroundImageFix" result="shape"/>
<feColorMatrix in="SourceAlpha" type="matrix" values="0 0 0 0 0 0 0 0 0 0 0 0 0 0 0 0 0 0 127 0" result="hardAlpha"/>
<feOffset dx="8" dy="-15"/>
<feGaussianBlur stdDeviation="15"/>
<feComposite in2="hardAlpha" operator="arithmetic" k2="-1" k3="1"/>
<feColorMatrix type="matrix" values="0 0 0 0 0 0 0 0 0 0 0 0 0 0 0 0 0 0 0.2 0"/>
<feBlend mode="normal" in2="shape" result="effect1_innerShadow_5401_4954"/>
<feColorMatrix in="SourceAlpha" type="matrix" values="0 0 0 0 0 0 0 0 0 0 0 0 0 0 0 0 0 0 127 0" result="hardAlpha"/>
<feOffset dx="-18" dy="11"/>
<feGaussianBlur stdDeviation="15"/>
<feComposite in2="hardAlpha" operator="arithmetic" k2="-1" k3="1"/>
<feColorMatrix type="matrix" values="0 0 0 0 1 0 0 0 0 1 0 0 0 0 1 0 0 0 1 0"/>
<feBlend mode="normal" in2="effect1_innerShadow_5401_4954" result="effect2_innerShadow_5401_4954"/>
</filter>
<radialGradient id="paint0_radial_5401_4954" cx="0" cy="0" r="1" gradientUnits="userSpaceOnUse" gradientTransform="translate(50.7087 15.6785) rotate(167.116) scale(13.0559 13.3095)">
<stop stop-color="#FF4F4F"/>
<stop offset="1"/>
</radialGradient>
</defs>
</svg>
