<svg width="17" height="12" viewBox="0 0 17 12" fill="none" xmlns="http://www.w3.org/2000/svg">
<path fill-rule="evenodd" clip-rule="evenodd" d="M15.9574 0.335938H14.9601C14.4093 0.335938 13.9628 0.783653 13.9628 1.33594V10.0026C13.9628 10.5549 14.4093 11.0026 14.9601 11.0026H15.9574C16.5083 11.0026 16.9548 10.5549 16.9548 10.0026V1.33594C16.9548 0.783653 16.5083 0.335938 15.9574 0.335938ZM10.3059 2.66927H11.3032C11.854 2.66927 12.3006 3.11699 12.3006 3.66927V10.0026C12.3006 10.5549 11.854 11.0026 11.3032 11.0026H10.3059C9.75506 11.0026 9.30853 10.5549 9.30853 10.0026V3.66927C9.30853 3.11699 9.75506 2.66927 10.3059 2.66927ZM6.64894 5.0026H5.6516C5.10079 5.0026 4.65427 5.45032 4.65427 6.0026V10.0026C4.65427 10.5549 5.10079 11.0026 5.6516 11.0026H6.64894C7.19975 11.0026 7.64627 10.5549 7.64627 10.0026V6.0026C7.64627 5.45032 7.19975 5.0026 6.64894 5.0026ZM1.99469 7.0026H0.997345C0.446527 7.0026 0 7.45032 0 8.0026V10.0026C0 10.5549 0.446527 11.0026 0.997345 11.0026H1.99469C2.54551 11.0026 2.99203 10.5549 2.99203 10.0026V8.0026C2.99203 7.45032 2.54551 7.0026 1.99469 7.0026Z" fill="#120D26"/>
</svg>
