<svg width="293" height="293" viewBox="0 0 293 293" fill="none" xmlns="http://www.w3.org/2000/svg">
<g filter="url(#filter0_di_246_4571)">
<path d="M138.329 134.12C137.538 135.079 136.652 135.318 135.291 134.861C131.925 133.731 128.565 132.589 125.209 131.432C124.955 131.321 124.674 131.284 124.399 131.326C124.125 131.369 123.868 131.489 123.659 131.672C120.853 133.814 118.019 135.915 115.187 138.021C113.448 139.312 111.354 138.775 110.738 136.868C110.639 136.526 110.595 136.17 110.609 135.814C110.645 132.256 110.681 128.694 110.76 125.136C110.787 124.86 110.736 124.582 110.611 124.335C110.486 124.087 110.293 123.881 110.055 123.739C107.305 121.822 104.545 119.906 101.862 117.927C101.143 117.397 100.616 116.616 100 115.95L100 114.333C100.62 113.188 101.632 112.656 102.858 112.299C106.337 111.264 109.782 110.121 113.242 109.019C113.481 109.295 113.675 109.587 113.927 109.838C121.809 117.726 129.694 125.61 137.581 133.493C137.811 133.718 138.079 133.914 138.329 134.12Z" fill="white"/>
<path d="M138.329 134.12C138.089 133.909 137.811 133.718 137.581 133.488C129.694 125.605 121.809 117.721 113.927 109.834C113.687 109.594 113.469 109.29 113.242 109.017C114.291 105.567 115.365 102.129 116.371 98.6666C116.725 97.4495 117.317 96.5103 118.508 96L119.945 96C120.664 96.6948 121.474 97.3129 122.056 98.1012C124.006 100.737 125.89 103.444 127.761 106.144C127.889 106.358 128.075 106.531 128.298 106.643C128.52 106.754 128.771 106.8 129.018 106.774C132.514 106.697 136.012 106.676 139.51 106.592C140.792 106.561 141.81 106.947 142.421 108.109C143.051 109.306 142.617 110.344 141.87 111.341C139.788 114.11 137.742 116.909 135.641 119.664C135.458 119.873 135.34 120.13 135.3 120.405C135.261 120.679 135.302 120.959 135.418 121.211C136.573 124.537 137.707 127.871 138.822 131.214C139.167 132.254 139.196 133.27 138.329 134.12Z" fill="white"/>
<path d="M192 104.805C190.956 107.333 188.675 106.702 186.61 106.798C186.61 107.699 186.61 108.528 186.61 109.357C186.588 111.003 185.424 112.194 183.876 112.17C182.364 112.148 181.241 110.972 181.224 109.362C181.212 108.533 181.224 107.704 181.224 106.782C180.301 106.782 179.472 106.782 178.644 106.782C176.998 106.758 175.809 105.584 175.836 104.041C175.86 102.531 177.034 101.417 178.648 101.405C179.456 101.405 180.261 101.405 181.183 101.405C181.339 99.4096 180.637 97.0616 183.2 96.0146L184.638 96.0146C187.161 97.064 186.535 99.3425 186.631 101.389C188.675 101.489 190.958 100.854 192.005 103.382L192 104.805Z" fill="white"/>
<path d="M174.379 170.57C175.551 169.404 177.125 169.329 178.28 170.475C182.592 174.754 186.885 179.048 191.157 183.357C191.505 183.707 191.723 184.181 192 184.596L192 185.853L191.104 187.291C190.973 187.13 190.85 186.96 190.704 186.812C185.448 181.541 180.188 176.281 174.925 171.033C174.758 170.848 174.561 170.712 174.379 170.57Z" fill="white"/>
<path d="M174.379 170.57C174.561 170.721 174.758 170.858 174.925 171.026C180.196 176.282 185.456 181.542 190.704 186.805C190.851 186.951 190.973 187.121 191.104 187.284L190.024 188.002L188.586 188.002C187.954 187.523 187.262 187.099 186.703 186.543C182.653 182.528 178.617 178.497 174.595 174.449C173.361 173.206 173.296 171.799 174.379 170.57Z" fill="white"/>
<path d="M182.657 166.349C181.953 165.968 181.219 165.76 180.752 165.29C173.132 157.719 165.532 150.126 157.951 142.51C157.696 142.265 157.492 141.972 157.351 141.648C157.21 141.323 157.135 140.974 157.129 140.62C157.124 140.267 157.188 139.916 157.319 139.587C157.45 139.258 157.644 138.959 157.891 138.706C158.909 137.644 160.527 137.608 161.703 138.627C161.816 138.725 161.919 138.835 162.024 138.941C169.451 146.368 176.878 153.795 184.305 161.222C185.666 162.583 185.784 164.298 184.521 165.386C184.035 165.807 183.352 166.002 182.657 166.349Z" fill="white"/>
<path d="M147.011 161.258C146.362 160.887 145.59 160.633 145.075 160.123C139.611 154.718 134.172 149.287 128.757 143.831C127.535 142.607 127.521 140.932 128.652 139.837C129.783 138.742 131.4 138.833 132.581 140.012C138.023 145.442 143.458 150.878 148.887 156.318C149.819 157.25 150.056 158.357 149.606 159.433C149.167 160.436 148.228 161.055 147.011 161.258Z" fill="white"/>
<path d="M170.078 124.75C170.078 123.828 170.078 122.996 170.078 122.168C170.102 120.558 171.223 119.379 172.738 119.362C174.252 119.345 175.442 120.534 175.464 122.189C175.476 122.994 175.464 123.801 175.464 124.75C176.303 124.75 177.096 124.75 177.889 124.75C179.647 124.75 180.847 125.848 180.852 127.434C180.857 129.02 179.654 130.129 177.915 130.141C177.141 130.141 176.365 130.141 175.464 130.141C175.464 131.027 175.464 131.852 175.464 132.678C175.447 134.355 174.314 135.536 172.762 135.529C171.209 135.522 170.095 134.331 170.078 132.654C170.078 131.851 170.078 131.049 170.078 130.136C169.175 130.136 168.346 130.136 167.519 130.136C165.862 130.115 164.671 128.962 164.69 127.41C164.707 125.898 165.888 124.774 167.495 124.75C168.324 124.741 169.156 124.75 170.078 124.75Z" fill="white"/>
<path d="M119.766 160.688L118.52 160.688C115.645 160.688 114.392 159.888 114.377 158.014C114.363 156.141 115.614 155.297 118.563 155.297L119.761 155.297C119.761 154.418 119.761 153.594 119.761 152.77C119.778 151.093 120.904 149.909 122.454 149.909C124.004 149.909 125.13 151.107 125.147 152.77C125.147 153.572 125.147 154.375 125.147 155.297L126.438 155.297C129.294 155.297 130.549 156.131 130.535 158.014C130.521 159.897 129.282 160.688 126.395 160.688L125.147 160.688C125.147 161.601 125.147 162.43 125.147 163.259C125.125 164.912 123.963 166.103 122.411 166.076C120.897 166.052 119.775 164.878 119.761 163.261C119.756 162.454 119.766 161.646 119.766 160.688Z" fill="white"/>
<path d="M152.074 166.51C152.098 164.885 152.591 164.011 153.66 163.551C154.15 163.314 154.703 163.238 155.239 163.334C155.776 163.431 156.268 163.694 156.645 164.087C157.769 165.161 158.851 166.28 159.951 167.379C163.018 170.446 166.086 173.511 169.156 176.575C169.997 177.408 170.34 178.362 170.033 179.505C169.616 181.057 167.695 181.874 166.262 181.105C165.872 180.883 165.516 180.607 165.205 180.283C161.18 176.27 157.15 172.264 153.164 168.213C152.613 167.652 152.294 166.864 152.074 166.51Z" fill="white"/>
<path d="M146.527 142.515C147.759 141.365 149.223 141.406 150.485 142.664C153.073 145.235 155.654 147.814 158.229 150.4C162.308 154.482 166.388 158.565 170.469 162.647C171.715 163.898 171.753 165.355 170.61 166.615C170.428 166.459 170.237 166.318 170.069 166.15C162.393 158.483 154.718 150.809 147.045 143.126C146.858 142.939 146.7 142.721 146.527 142.515Z" fill="white"/>
<path d="M146.527 142.516C146.7 142.722 146.858 142.94 147.045 143.127C154.711 150.804 162.386 158.479 170.069 166.151C170.236 166.318 170.428 166.46 170.61 166.615C169.355 167.962 167.644 167.514 166.722 166.582C165.481 165.329 164.225 164.085 162.977 162.837C157.546 157.399 152.109 151.959 146.666 146.519C145.353 145.204 145.315 143.699 146.527 142.516Z" fill="white"/>
<path d="M142.893 126.688C143.096 125.519 143.532 124.714 144.44 124.194C144.852 123.944 145.326 123.815 145.808 123.822C146.29 123.828 146.76 123.971 147.165 124.233C147.443 124.406 147.699 124.613 147.926 124.851C149.92 126.833 151.907 128.82 153.89 130.811C155.186 132.112 155.265 133.686 154.115 134.865C152.965 136.044 151.384 135.948 150.068 134.64C148.053 132.637 146.024 130.651 144.06 128.598C143.544 128.071 143.276 127.33 142.893 126.688Z" fill="white"/>
<path d="M186.294 147.211C185.76 147.22 185.235 147.069 184.787 146.779C184.338 146.489 183.986 146.072 183.775 145.582C183.564 145.091 183.503 144.549 183.601 144.024C183.698 143.499 183.949 143.015 184.323 142.632C184.696 142.25 185.174 141.988 185.697 141.878C186.22 141.769 186.763 141.817 187.258 142.016C187.754 142.216 188.179 142.558 188.479 143C188.779 143.442 188.942 143.963 188.946 144.497C188.945 145.206 188.668 145.886 188.172 146.394C187.677 146.901 187.002 147.194 186.294 147.211Z" fill="white"/>
<path d="M161.993 108.549C161.998 109.083 161.845 109.607 161.553 110.054C161.26 110.501 160.842 110.851 160.35 111.059C159.858 111.268 159.316 111.326 158.791 111.225C158.267 111.125 157.784 110.871 157.404 110.496C157.024 110.121 156.764 109.641 156.657 109.118C156.55 108.594 156.601 108.051 156.803 107.557C157.006 107.062 157.35 106.639 157.794 106.341C158.237 106.043 158.759 105.884 159.293 105.883C160.002 105.886 160.681 106.168 161.186 106.666C161.691 107.164 161.98 107.84 161.993 108.549Z" fill="white"/>
<path d="M141.302 184.946C140.767 184.94 140.247 184.776 139.806 184.474C139.365 184.172 139.024 183.746 138.825 183.249C138.627 182.753 138.581 182.209 138.693 181.686C138.805 181.164 139.07 180.686 139.454 180.314C139.838 179.942 140.324 179.693 140.85 179.598C141.376 179.503 141.918 179.567 142.408 179.781C142.898 179.994 143.313 180.349 143.6 180.8C143.888 181.25 144.035 181.776 144.024 182.31C144.002 183.017 143.705 183.688 143.197 184.18C142.689 184.672 142.009 184.947 141.302 184.946Z" fill="white"/>
<path d="M105.427 174.164C104.893 174.171 104.369 174.02 103.921 173.728C103.473 173.437 103.122 173.019 102.912 172.528C102.703 172.037 102.643 171.495 102.742 170.97C102.841 170.445 103.094 169.961 103.468 169.58C103.842 169.199 104.321 168.938 104.844 168.83C105.367 168.722 105.911 168.771 106.406 168.972C106.9 169.173 107.324 169.517 107.623 169.959C107.923 170.402 108.084 170.923 108.086 171.457C108.084 172.166 107.804 172.846 107.308 173.352C106.811 173.858 106.136 174.149 105.427 174.164Z" fill="white"/>
</g>
<defs>
<filter id="filter0_di_246_4571" x="0" y="0" width="292.005" height="292.002" filterUnits="userSpaceOnUse" color-interpolation-filters="sRGB">
<feFlood flood-opacity="0" result="BackgroundImageFix"/>
<feColorMatrix in="SourceAlpha" type="matrix" values="0 0 0 0 0 0 0 0 0 0 0 0 0 0 0 0 0 0 127 0" result="hardAlpha"/>
<feOffset dy="4"/>
<feGaussianBlur stdDeviation="50"/>
<feComposite in2="hardAlpha" operator="out"/>
<feColorMatrix type="matrix" values="0 0 0 0 0 0 0 0 0 0 0 0 0 0 0 0 0 0 0.2 0"/>
<feBlend mode="normal" in2="BackgroundImageFix" result="effect1_dropShadow_246_4571"/>
<feBlend mode="normal" in="SourceGraphic" in2="effect1_dropShadow_246_4571" result="shape"/>
<feColorMatrix in="SourceAlpha" type="matrix" values="0 0 0 0 0 0 0 0 0 0 0 0 0 0 0 0 0 0 127 0" result="hardAlpha"/>
<feOffset dx="-18" dy="11"/>
<feGaussianBlur stdDeviation="15"/>
<feComposite in2="hardAlpha" operator="arithmetic" k2="-1" k3="1"/>
<feColorMatrix type="matrix" values="0 0 0 0 1 0 0 0 0 1 0 0 0 0 1 0 0 0 1 0"/>
<feBlend mode="normal" in2="shape" result="effect2_innerShadow_246_4571"/>
</filter>
</defs>
</svg>
