<svg width="93" height="93" viewBox="0 0 93 93" fill="none" xmlns="http://www.w3.org/2000/svg">
<path d="M38.3286 38.1203C37.538 39.0786 36.6515 39.3182 35.2907 38.8606C31.9253 37.7313 28.5648 36.5885 25.209 35.4321C24.9546 35.3206 24.6736 35.2839 24.3991 35.3263C24.1245 35.3688 23.8678 35.4886 23.6589 35.6717C20.8534 37.8136 18.0191 39.9147 15.1872 42.0207C13.4478 43.312 11.3539 42.7754 10.7381 40.8683C10.6385 40.5262 10.5948 40.1702 10.6088 39.8141C10.6447 36.2563 10.6806 32.6937 10.7597 29.1359C10.7873 28.8601 10.7357 28.5823 10.6109 28.3349C10.4861 28.0875 10.2934 27.8808 10.0553 27.7391C7.30488 25.8224 4.54488 23.9057 1.86154 21.9268C1.14279 21.3973 0.615699 20.6162 -3.08205e-05 19.9502L-3.07499e-05 18.333C0.620491 17.1878 1.63153 16.6559 2.8582 16.2989C6.33697 15.2639 9.78219 14.1211 13.2418 13.019C13.4814 13.2946 13.6754 13.5869 13.927 13.8384C21.8093 21.7255 29.694 29.6102 37.5811 37.4925C37.8111 37.7178 38.0794 37.9142 38.3286 38.1203Z" fill="#FED745"/>
<path d="M38.3287 38.1202C38.0891 37.9094 37.8112 37.7177 37.5812 37.4877C29.6941 29.6054 21.8094 21.7207 13.9271 13.8336C13.6875 13.594 13.4695 13.2897 13.2419 13.0166C14.2912 9.5666 15.3646 6.12856 16.3708 2.66657C16.7254 1.44948 17.3172 0.510313 18.5079 -1.05852e-06L19.9454 -9.95688e-07C20.6642 0.694793 21.474 1.31292 22.0562 2.10116C24.0064 4.73658 25.8895 7.44388 27.7607 10.144C27.8885 10.3579 28.0748 10.5309 28.2976 10.6425C28.5205 10.7542 28.7706 10.7998 29.0185 10.7741C32.514 10.6974 36.0119 10.6759 39.5099 10.592C40.7916 10.5609 41.8099 10.9466 42.4208 12.1086C43.0509 13.3065 42.6173 14.3439 41.8698 15.3406C39.7878 18.1102 37.7417 20.9085 35.6406 23.6637C35.458 23.8727 35.3399 24.13 35.3003 24.4046C35.2608 24.6793 35.3016 24.9595 35.4178 25.2114C36.5726 28.5369 37.7074 31.8711 38.8222 35.2141C39.1673 36.2539 39.196 37.2697 38.3287 38.1202Z" fill="#FEEE4A"/>
<path d="M92.0006 8.80499C90.956 11.3326 88.6752 10.7025 86.6099 10.7983C86.6099 11.6992 86.6099 12.5281 86.6099 13.3571C86.5884 15.003 85.424 16.1938 83.8763 16.1698C82.3645 16.1482 81.2409 14.9719 81.2241 13.3619C81.2121 12.5329 81.2241 11.704 81.2241 10.7816C80.3017 10.7816 79.4727 10.7816 78.6438 10.7816C76.9978 10.7576 75.8095 9.58363 75.8358 8.04071C75.8598 6.53133 77.0338 5.41727 78.6486 5.40529C79.456 5.40529 80.261 5.40529 81.1834 5.40529C81.3391 3.40955 80.6371 1.06163 83.2007 0.0146481L84.6382 0.0146481C87.161 1.06403 86.5357 3.34247 86.6315 5.38852C88.6752 5.48914 90.9584 4.85425 92.0054 7.38186L92.0006 8.80499Z" fill="#FED746"/>
<path d="M74.3791 74.5706C75.5507 73.4039 77.1247 73.3296 78.2795 74.4748C82.592 78.7538 86.8846 83.0479 91.1572 87.3572C91.5046 87.707 91.7226 88.1814 92.0005 88.5959L92.0005 89.8537L91.1044 91.2912C90.9727 91.1307 90.8505 90.9606 90.7043 90.812C85.4479 85.5412 80.1882 80.2815 74.9253 75.033C74.7576 74.8486 74.5612 74.712 74.3791 74.5706Z" fill="#FED748"/>
<path d="M74.3791 74.5706C74.5612 74.7215 74.7577 74.8581 74.9254 75.0258C80.1962 80.2822 85.4559 85.5419 90.7044 90.8048C90.8505 90.9509 90.9727 91.121 91.1045 91.2839L90.024 92.0027L88.5865 92.0027C87.954 91.5235 87.2616 91.0995 86.7033 90.5436C82.6528 86.5282 78.6166 82.4968 74.5948 78.4494C73.3609 77.206 73.2962 75.7996 74.3791 74.5706Z" fill="#FEB455"/>
<path d="M82.657 70.3489C81.9526 69.968 81.2195 69.7595 80.7523 69.2899C73.1319 61.7191 65.5315 54.1259 57.9511 46.5103C57.6962 46.2651 57.4923 45.9719 57.3513 45.6475C57.2102 45.3232 57.1347 44.9741 57.1292 44.6205C57.1236 44.2668 57.1881 43.9156 57.3188 43.587C57.4496 43.2583 57.6441 42.9588 57.8912 42.7057C58.9094 41.6444 60.5266 41.6084 61.703 42.6266C61.8156 42.7249 61.9186 42.8351 62.024 42.9405C69.4511 50.3676 76.8782 57.7947 84.3053 65.2218C85.6662 66.5826 85.7835 68.2981 84.5209 69.3858C84.0346 69.8074 83.3518 70.0015 82.657 70.3489Z" fill="#FED847"/>
<path d="M47.0114 65.2581C46.3621 64.8868 45.5907 64.6328 45.0756 64.1225C39.6115 58.7175 34.1721 53.2869 28.7575 47.8308C27.5357 46.6065 27.5213 44.9318 28.6521 43.8369C29.7829 42.742 31.4001 42.8331 32.5813 44.0118C38.023 49.4424 43.4584 54.8778 48.8874 60.3179C49.8193 61.2499 50.0565 62.3568 49.6061 63.4325C49.1677 64.4364 48.2285 65.0545 47.0114 65.2581Z" fill="#FEB456"/>
<path d="M70.0779 28.75C70.0779 27.8276 70.0779 26.9962 70.0779 26.1673C70.1019 24.5573 71.2232 23.3785 72.7373 23.3617C74.2515 23.345 75.4422 24.5333 75.4638 26.1888C75.4758 26.9938 75.4638 27.8012 75.4638 28.75C76.3023 28.75 77.0954 28.75 77.8884 28.75C79.6469 28.75 80.8472 29.8473 80.852 31.4333C80.8568 33.0194 79.6541 34.1286 77.9147 34.1406C77.1409 34.1406 76.3646 34.1406 75.4638 34.1406C75.4638 35.0271 75.4638 35.8513 75.4638 36.6778C75.447 38.3549 74.3138 39.536 72.7613 39.5289C71.2088 39.5217 70.0947 38.3309 70.0779 36.6539C70.0779 35.8512 70.0779 35.0486 70.0779 34.1358C69.1747 34.1358 68.3458 34.1358 67.5192 34.1358C65.8613 34.1143 64.6705 32.9619 64.6897 31.4094C64.7065 29.8976 65.8876 28.7739 67.4952 28.75C68.3242 28.7404 69.1555 28.75 70.0779 28.75Z" fill="#FED746"/>
<path d="M19.7657 64.6878L18.5199 64.6878C15.6449 64.6878 14.3919 63.8876 14.3775 62.014C14.3631 60.1405 15.6137 59.2972 18.563 59.2972L19.7609 59.2972C19.7609 58.4179 19.7609 57.5937 19.7609 56.7696C19.7777 55.0925 20.9038 53.9089 22.4539 53.9089C24.004 53.9089 25.13 55.1069 25.1468 56.7696C25.1468 57.5722 25.1468 58.3748 25.1468 59.2972L26.4381 59.2972C29.294 59.2972 30.5494 60.1309 30.535 62.0141C30.5207 63.8972 29.282 64.6878 26.395 64.6878L25.1468 64.6878C25.1468 65.6006 25.1468 66.4296 25.1468 67.2585C25.1252 68.9117 23.9632 70.1024 22.4107 70.0761C20.8966 70.0521 19.7753 68.8781 19.7609 67.2609C19.7561 66.4535 19.7657 65.6462 19.7657 64.6878Z" fill="#FEB455"/>
<path d="M52.0736 70.5099C52.0976 68.8855 52.5911 68.011 53.6597 67.551C54.1502 67.3138 54.7032 67.238 55.2395 67.3344C55.7757 67.4308 56.2677 67.6945 56.6449 68.0877C57.7685 69.161 58.8515 70.2799 59.9511 71.3796C63.0178 74.4462 66.0861 77.5113 69.156 80.5748C69.9969 81.4085 70.3395 82.3621 70.0328 83.5049C69.616 85.0574 67.6945 85.8744 66.2618 85.1053C65.8719 84.8837 65.516 84.6069 65.2052 84.2836C61.1802 80.2705 57.1504 76.2647 53.1637 72.2133C52.6127 71.6527 52.294 70.8645 52.0736 70.5099Z" fill="#FEB456"/>
<path d="M46.5272 46.5154C47.7587 45.3654 49.2225 45.4061 50.4851 46.6639C53.0726 49.2354 55.6538 51.8142 58.2285 54.4001C62.3078 58.4826 66.3879 62.5651 70.4688 66.6476C71.7147 67.8982 71.753 69.3549 70.6102 70.6151C70.4281 70.4594 70.2364 70.318 70.0687 70.1503C62.3925 62.4836 54.7178 54.809 47.0447 47.1263C46.8578 46.9394 46.6997 46.7214 46.5272 46.5154Z" fill="#FED748"/>
<path d="M46.5269 46.5154C46.6994 46.7214 46.8575 46.9394 47.0444 47.1263C54.7111 54.8042 62.3857 62.4789 70.0684 70.1503C70.2361 70.3181 70.4278 70.4594 70.6099 70.6151C69.3544 71.9616 67.6438 71.5136 66.7214 70.5816C65.4804 69.3286 64.2249 68.0851 62.9767 66.8369C57.5461 61.3983 52.1092 55.959 46.6658 50.5188C45.3529 49.2035 45.3146 47.6989 46.5269 46.5154Z" fill="#FEB454"/>
<path d="M42.8925 30.6883C43.0961 29.5191 43.5322 28.7141 44.4402 28.1942C44.852 27.9439 45.3259 27.8148 45.8077 27.8215C46.2896 27.8283 46.7597 27.9708 47.1643 28.2325C47.4431 28.4058 47.6991 28.6135 47.9261 28.8506C49.9195 30.8328 51.9072 32.8198 53.8894 34.8115C55.1855 36.1124 55.2646 37.6865 54.1146 38.8653C52.9646 40.044 51.3833 39.9482 50.068 38.6401C48.0531 36.6371 46.0239 34.651 44.0593 32.5977C43.5442 32.0707 43.2758 31.3303 42.8925 30.6883Z" fill="#FED848"/>
<path d="M86.2936 51.2111C85.7596 51.2196 85.2351 51.0693 84.7866 50.7792C84.3382 50.4891 83.986 50.0724 83.7749 49.5818C83.5637 49.0912 83.503 48.549 83.6006 48.0239C83.6981 47.4988 83.9494 47.0145 84.3227 46.6325C84.6959 46.2505 85.1743 45.988 85.697 45.8783C86.2197 45.7686 86.7632 45.8166 87.2585 46.0164C87.7538 46.2161 88.1787 46.5585 88.4791 47.0001C88.7795 47.4417 88.9419 47.9625 88.9458 48.4966C88.9454 49.2057 88.6678 49.8865 88.1722 50.3937C87.6767 50.9009 87.0025 51.1942 86.2936 51.2111Z" fill="#FED848"/>
<path d="M61.993 12.5494C61.9987 13.0835 61.8456 13.6072 61.5531 14.0541C61.2607 14.501 60.842 14.8509 60.3503 15.0595C59.8586 15.268 59.3161 15.3258 58.7915 15.2255C58.2669 15.1251 57.7839 14.8712 57.4039 14.4959C57.0239 14.1206 56.7639 13.6409 56.657 13.1176C56.5502 12.5943 56.6011 12.051 56.8035 11.5567C57.0059 11.0625 57.3506 10.6395 57.7938 10.3415C58.237 10.0434 58.7588 9.88379 59.2929 9.88281C60.0021 9.88646 60.6817 10.1675 61.1863 10.6659C61.691 11.1642 61.9805 11.8403 61.993 12.5494Z" fill="#FED848"/>
<path d="M41.3016 88.9459C40.7672 88.9406 40.2464 88.7764 39.8054 88.4744C39.3645 88.1723 39.0233 87.746 38.8252 87.2496C38.6272 86.7532 38.5811 86.209 38.693 85.6864C38.8049 85.1638 39.0697 84.6862 39.4537 84.3144C39.8376 83.9426 40.3235 83.6934 40.8494 83.5984C41.3754 83.5033 41.9177 83.5668 42.4075 83.7808C42.8973 83.9947 43.3124 84.3495 43.6001 84.7999C43.8878 85.2503 44.0351 85.7761 44.0233 86.3105C44.0015 87.0175 43.705 87.6881 43.1969 88.1802C42.6888 88.6722 42.0089 88.9469 41.3016 88.9459Z" fill="#FEB557"/>
<path d="M5.42657 78.1645C4.89252 78.1717 4.36839 78.02 3.92072 77.7287C3.47305 77.4374 3.12201 77.0197 2.91214 76.5285C2.70228 76.0374 2.64305 75.495 2.74199 74.9702C2.84093 74.4453 3.09357 73.9617 3.46785 73.5807C3.84212 73.1997 4.32115 72.9385 4.84415 72.8302C5.36715 72.7219 5.91051 72.7714 6.40532 72.9724C6.90012 73.1735 7.32403 73.517 7.62325 73.9594C7.92247 74.4018 8.08352 74.9232 8.08594 75.4572C8.0836 76.1663 7.80416 76.8463 7.30728 77.3522C6.8104 77.858 6.13546 78.1495 5.42657 78.1645Z" fill="#FEB557"/>
</svg>
