<svg width="115" height="114" viewBox="0 0 115 114" fill="none" xmlns="http://www.w3.org/2000/svg">
<g filter="url(#filter0_di_185_4190)">
<path d="M45.45 68V50.5H55.975V52.55H47.625V57.925H53.15V59.975H47.625V68H45.45Z" fill="#444E72"/>
</g>
<g filter="url(#filter1_d_185_4190)">
<path d="M63.232 50.984C62.6987 51.5067 62.048 51.768 61.28 51.768C60.512 51.768 59.856 51.5067 59.312 50.984C58.7787 50.4613 58.512 49.816 58.512 49.048C58.512 48.2693 58.7787 47.624 59.312 47.112C59.8453 46.5893 60.5013 46.328 61.28 46.328C62.0587 46.328 62.7093 46.5893 63.232 47.112C63.7653 47.624 64.032 48.2693 64.032 49.048C64.032 49.816 63.7653 50.4613 63.232 50.984ZM61.28 50.456C61.664 50.456 61.9787 50.3227 62.224 50.056C62.48 49.7893 62.608 49.4533 62.608 49.048C62.608 48.632 62.48 48.296 62.224 48.04C61.9787 47.7733 61.664 47.64 61.28 47.64C60.896 47.64 60.5707 47.7733 60.304 48.04C60.048 48.3067 59.92 48.6427 59.92 49.048C59.92 49.4427 60.0533 49.7787 60.32 50.056C60.5867 50.3227 60.9067 50.456 61.28 50.456Z" fill="#444E72"/>
</g>
<defs>
<filter id="filter0_di_185_4190" x="42.45" y="50.5" width="13.525" height="21.5" filterUnits="userSpaceOnUse" color-interpolation-filters="sRGB">
<feFlood flood-opacity="0" result="BackgroundImageFix"/>
<feColorMatrix in="SourceAlpha" type="matrix" values="0 0 0 0 0 0 0 0 0 0 0 0 0 0 0 0 0 0 127 0" result="hardAlpha"/>
<feOffset dx="-2" dy="3"/>
<feGaussianBlur stdDeviation="0.5"/>
<feColorMatrix type="matrix" values="0 0 0 0 0 0 0 0 0 0 0 0 0 0 0 0 0 0 0.1 0"/>
<feBlend mode="normal" in2="BackgroundImageFix" result="effect1_dropShadow_185_4190"/>
<feBlend mode="normal" in="SourceGraphic" in2="effect1_dropShadow_185_4190" result="shape"/>
<feColorMatrix in="SourceAlpha" type="matrix" values="0 0 0 0 0 0 0 0 0 0 0 0 0 0 0 0 0 0 127 0" result="hardAlpha"/>
<feOffset dx="-1" dy="1"/>
<feGaussianBlur stdDeviation="1"/>
<feComposite in2="hardAlpha" operator="arithmetic" k2="-1" k3="1"/>
<feColorMatrix type="matrix" values="0 0 0 0 1 0 0 0 0 1 0 0 0 0 1 0 0 0 0.25 0"/>
<feBlend mode="normal" in2="shape" result="effect2_innerShadow_185_4190"/>
</filter>
<filter id="filter1_d_185_4190" x="0.511963" y="0.328125" width="113.52" height="113.44" filterUnits="userSpaceOnUse" color-interpolation-filters="sRGB">
<feFlood flood-opacity="0" result="BackgroundImageFix"/>
<feColorMatrix in="SourceAlpha" type="matrix" values="0 0 0 0 0 0 0 0 0 0 0 0 0 0 0 0 0 0 127 0" result="hardAlpha"/>
<feMorphology radius="4" operator="dilate" in="SourceAlpha" result="effect1_dropShadow_185_4190"/>
<feOffset dx="-4" dy="8"/>
<feGaussianBlur stdDeviation="25"/>
<feColorMatrix type="matrix" values="0 0 0 0 0 0 0 0 0 0 0 0 0 0 0 0 0 0 0.1 0"/>
<feBlend mode="normal" in2="BackgroundImageFix" result="effect1_dropShadow_185_4190"/>
<feBlend mode="normal" in="SourceGraphic" in2="effect1_dropShadow_185_4190" result="shape"/>
</filter>
</defs>
</svg>
