<svg width="30" height="30" viewBox="0 0 30 30" fill="none" xmlns="http://www.w3.org/2000/svg">
<path fill-rule="evenodd" clip-rule="evenodd" d="M29.4 15.3409C29.4 14.2772 29.3045 13.2545 29.1273 12.2727H15V18.075H23.0727C22.725 19.95 21.6682 21.5386 20.0795 22.6022V26.3659H24.9273C27.7636 23.7545 29.4 19.9091 29.4 15.3409Z" fill="#4285F4"/>
<path fill-rule="evenodd" clip-rule="evenodd" d="M14.9998 29.9997C19.0498 29.9997 22.4452 28.6565 24.927 26.3656L20.0793 22.602C18.7361 23.502 17.0179 24.0338 14.9998 24.0338C11.0929 24.0338 7.78612 21.3952 6.60658 17.8497H1.59521V21.7361C4.0634 26.6384 9.13612 29.9997 14.9998 29.9997Z" fill="#34A853"/>
<path fill-rule="evenodd" clip-rule="evenodd" d="M6.60682 17.85C6.30682 16.95 6.13636 15.9887 6.13636 15C6.13636 14.0114 6.30682 13.05 6.60682 12.15V8.26367H1.59545C0.579545 10.2887 0 12.5796 0 15C0 17.4205 0.579545 19.7114 1.59545 21.7364L6.60682 17.85Z" fill="#FBBC05"/>
<path fill-rule="evenodd" clip-rule="evenodd" d="M14.9998 5.96591C17.202 5.96591 19.1793 6.72273 20.7339 8.20909L25.0361 3.90682C22.4384 1.48636 19.0429 0 14.9998 0C9.13612 0 4.0634 3.36136 1.59521 8.26364L6.60658 12.15C7.78612 8.60454 11.0929 5.96591 14.9998 5.96591Z" fill="#EA4335"/>
</svg>
