<svg width="26" height="26" viewBox="0 0 26 26" fill="none" xmlns="http://www.w3.org/2000/svg">
<path d="M23.0498 6.5251L15.8498 1.48761C13.8873 0.112605 10.8748 0.187605 8.9873 1.65011L2.7248 6.5376C1.4748 7.5126 0.487305 9.5126 0.487305 11.0876V19.7126C0.487305 22.9001 3.0748 25.5001 6.2623 25.5001H19.7373C22.9248 25.5001 25.5123 22.9126 25.5123 19.7251V11.2501C25.5123 9.5626 24.4248 7.4876 23.0498 6.5251ZM13.9373 20.5001C13.9373 21.0126 13.5123 21.4376 12.9998 21.4376C12.4873 21.4376 12.0623 21.0126 12.0623 20.5001V16.7501C12.0623 16.2376 12.4873 15.8126 12.9998 15.8126C13.5123 15.8126 13.9373 16.2376 13.9373 16.7501V20.5001Z" fill="white"/>
</svg>
