<svg width="32" height="32" viewBox="0 0 32 32" fill="none" xmlns="http://www.w3.org/2000/svg">
<path d="M10.1732 4.76C10.4124 4.62954 10.6666 4.83024 10.6666 5.10269V23.3028C10.6666 23.5261 10.5157 23.7166 10.3129 23.8099C10.2648 23.832 10.2184 23.8554 10.1732 23.88L7.03989 25.6667C4.85322 26.92 3.05322 25.88 3.05322 23.3467V10.3733C3.05322 9.53333 3.65322 8.49333 4.39989 8.06667L10.1732 4.76Z" fill="white"/>
<path d="M19.7219 8.18228C19.8922 8.26663 20 8.44027 20 8.63034V26.5366C20 26.9051 19.615 27.147 19.283 26.9871L13.283 24.0963C13.11 24.013 13 23.8379 13 23.6459V5.65891C13 5.28805 13.3896 5.04626 13.7219 5.21085L19.7219 8.18228Z" fill="white"/>
<path d="M29.3333 8.65333V21.6267C29.3333 22.4667 28.7333 23.5067 27.9866 23.9333L23.0819 26.7443C22.7485 26.9353 22.3333 26.6947 22.3333 26.3105V8.34366C22.3333 8.16414 22.4295 7.9984 22.5854 7.90942L25.3466 6.33333C27.5333 5.08 29.3333 6.12 29.3333 8.65333Z" fill="white"/>
</svg>
