<svg width="30" height="30" viewBox="0 0 30 30" fill="none" xmlns="http://www.w3.org/2000/svg">
<path d="M26.25 20.3125H18.75C18.2375 20.3125 17.8125 19.8875 17.8125 19.375C17.8125 18.8625 18.2375 18.4375 18.75 18.4375H26.25C26.7625 18.4375 27.1875 18.8625 27.1875 19.375C27.1875 19.8875 26.7625 20.3125 26.25 20.3125Z" fill="white"/>
<path d="M26.25 25.3125H18.75C18.2375 25.3125 17.8125 24.8875 17.8125 24.375C17.8125 23.8625 18.2375 23.4375 18.75 23.4375H26.25C26.7625 23.4375 27.1875 23.8625 27.1875 24.375C27.1875 24.8875 26.7625 25.3125 26.25 25.3125Z" fill="white"/>
<path d="M27.5 10.65V4.975C27.5 3.2125 26.7 2.5 24.7125 2.5H19.6625C17.675 2.5 16.875 3.2125 16.875 4.975V10.6375C16.875 12.4125 17.675 13.1125 19.6625 13.1125H24.7125C26.7 13.125 27.5 12.4125 27.5 10.65Z" fill="white"/>
<path d="M13.125 10.65V4.975C13.125 3.2125 12.325 2.5 10.3375 2.5H5.2875C3.3 2.5 2.5 3.2125 2.5 4.975V10.6375C2.5 12.4125 3.3 13.1125 5.2875 13.1125H10.3375C12.325 13.125 13.125 12.4125 13.125 10.65Z" fill="white"/>
<path d="M13.125 24.7125V19.6625C13.125 17.675 12.325 16.875 10.3375 16.875H5.2875C3.3 16.875 2.5 17.675 2.5 19.6625V24.7125C2.5 26.7 3.3 27.5 5.2875 27.5H10.3375C12.325 27.5 13.125 26.7 13.125 24.7125Z" fill="white"/>
</svg>
