<svg width="16" height="16" viewBox="0 0 16 16" fill="none" xmlns="http://www.w3.org/2000/svg">
<path d="M14.3534 10.6202C14.2467 10.4402 13.9467 10.1602 13.2 10.2936C12.7867 10.3669 12.3667 10.4002 11.9467 10.3802C10.3934 10.3136 8.98672 9.60024 8.00672 8.50024C7.14005 7.53357 6.60672 6.27357 6.60005 4.91357C6.60005 4.15357 6.74672 3.42024 7.04672 2.72691C7.34005 2.05357 7.13338 1.70024 6.98672 1.55357C6.83338 1.40024 6.47338 1.18691 5.76672 1.48024C3.04005 2.62691 1.35338 5.36024 1.55338 8.28691C1.75338 11.0402 3.68672 13.3936 6.24672 14.2802C6.86005 14.4936 7.50672 14.6202 8.17338 14.6469C8.28005 14.6536 8.38672 14.6602 8.49338 14.6602C10.7267 14.6602 12.82 13.6069 14.14 11.8136C14.5867 11.1936 14.4667 10.8002 14.3534 10.6202Z" fill="#FFD130"/>
</svg>
