<svg width="148" height="132" viewBox="0 0 148 132" fill="none" xmlns="http://www.w3.org/2000/svg">
<path d="M3.88124 121.809L0 103.552H4.06237L5.95124 113.281C5.98574 113.402 6.01161 113.567 6.02886 113.776C6.04611 113.985 6.06336 114.124 6.08061 114.193C6.09786 114.106 6.11511 113.959 6.13236 113.75C6.14961 113.541 6.17549 113.367 6.20999 113.228L8.51285 103.552H11.9542L14.283 113.254C14.3175 113.411 14.352 113.602 14.3865 113.828C14.421 114.054 14.4382 114.193 14.4382 114.246C14.4555 114.176 14.4727 114.08 14.49 113.959C14.5072 113.837 14.5245 113.724 14.5417 113.62C14.559 113.515 14.5762 113.411 14.5935 113.307L16.4565 103.552H20.5188L16.6117 121.809H12.8857L10.35 111.663C10.3155 111.507 10.2637 111.168 10.1947 110.646C10.1257 111.237 10.074 111.568 10.0395 111.637L7.60723 121.809H3.88124Z" fill="white"/>
<path d="M27.4242 122.122C25.475 122.122 23.9397 121.505 22.8185 120.271C21.6972 119.036 21.1366 117.323 21.1366 115.132C21.1366 112.994 21.6972 111.298 22.8185 110.046C23.957 108.794 25.4922 108.168 27.4242 108.168C29.1837 108.168 30.6154 108.707 31.7194 109.785C32.8234 110.864 33.3754 112.429 33.3754 114.48C33.3754 115.332 33.3409 115.984 33.2719 116.436H24.8108C24.8453 117.271 25.1041 117.897 25.5871 118.314C26.0701 118.714 26.6825 118.914 27.4242 118.914C28.6317 118.914 29.6236 118.445 30.3998 117.506L32.5733 119.697C31.2451 121.314 29.5287 122.122 27.4242 122.122ZM24.8367 113.594H29.7788C29.5891 112.116 28.7524 111.377 27.2689 111.377C26.5962 111.377 26.0442 111.576 25.613 111.976C25.1817 112.359 24.923 112.898 24.8367 113.594Z" fill="white"/>
<path d="M43.9676 121.809V120.818C43.1741 121.688 42.0787 122.122 40.6815 122.122C39.2152 122.122 38.0163 121.749 37.0849 121.001C36.1706 120.236 35.7135 119.149 35.7135 117.741C35.7135 116.367 36.2482 115.315 37.3177 114.585C38.3872 113.837 39.6378 113.463 41.0696 113.463C42.3116 113.463 43.2776 113.62 43.9676 113.933V113.202C43.9676 112.594 43.7778 112.133 43.3983 111.82C43.0188 111.49 42.4927 111.324 41.82 111.324C40.3882 111.324 38.9737 111.794 37.5765 112.733L36.4121 109.838C38.0336 108.725 39.9225 108.168 42.0787 108.168C45.822 108.168 47.6936 109.907 47.6936 113.385V121.809H43.9676ZM41.406 118.94C42.3375 118.94 43.1913 118.627 43.9676 118.001V116.802C43.2776 116.593 42.5272 116.489 41.7165 116.489C40.164 116.489 39.3877 116.915 39.3877 117.767C39.3877 118.549 40.0605 118.94 41.406 118.94Z" fill="white"/>
<path d="M55.3071 122.122C53.0818 122.122 51.9692 120.905 51.9692 118.471V111.794H50.158V108.481H51.9692V104.778L55.6952 102.978V108.481H58.5673V111.794H55.6952V118.106C55.6952 118.349 55.7642 118.54 55.9022 118.68C56.0574 118.801 56.2386 118.862 56.4456 118.862C57.2046 118.862 57.9636 118.688 58.7226 118.34L58.3086 121.523C57.4978 121.922 56.4973 122.122 55.3071 122.122Z" fill="white"/>
<path d="M61.7077 121.809V104.726L65.4595 102.978V109.707C66.3048 108.681 67.5037 108.168 69.0562 108.168C70.2809 108.168 71.3504 108.56 72.2646 109.342C73.1789 110.125 73.636 111.394 73.636 113.15V121.809H69.8842V114.663C69.8842 113.672 69.7203 112.95 69.3925 112.498C69.082 112.046 68.5473 111.82 67.7883 111.82C66.2358 111.82 65.4595 112.75 65.4595 114.611V121.809H61.7077Z" fill="white"/>
<path d="M83.0401 122.122C81.0909 122.122 79.5557 121.505 78.4344 120.271C77.3132 119.036 76.7525 117.323 76.7525 115.132C76.7525 112.994 77.3132 111.298 78.4344 110.046C79.5729 108.794 81.1082 108.168 83.0401 108.168C84.7996 108.168 86.2314 108.707 87.3354 109.785C88.4394 110.864 88.9914 112.429 88.9914 114.48C88.9914 115.332 88.9569 115.984 88.8879 116.436H80.4268C80.4613 117.271 80.72 117.897 81.203 118.314C81.686 118.714 82.2984 118.914 83.0401 118.914C84.2476 118.914 85.2395 118.445 86.0158 117.506L88.1893 119.697C86.861 121.314 85.1446 122.122 83.0401 122.122ZM80.4527 113.594H85.3948C85.205 112.116 84.3684 111.377 82.8849 111.377C82.2122 111.377 81.6601 111.576 81.2289 111.976C80.7977 112.359 80.5389 112.898 80.4527 113.594Z" fill="white"/>
<path d="M92.1057 121.809V108.481H95.8575V109.681C96.03 109.333 96.3405 108.994 96.789 108.664C97.2375 108.334 97.7637 108.168 98.3674 108.168C99.4024 108.168 100.274 108.542 100.981 109.29L100.489 112.733C99.7647 112.124 98.9798 111.82 98.1345 111.82C96.6165 111.82 95.8575 112.741 95.8575 114.585V121.809H92.1057Z" fill="white"/>
<path d="M114.277 121.809L112.932 118.262H106.127L104.781 121.809H100.486L107.628 103.552H111.405L118.573 121.809H114.277ZM111.612 114.611L110.06 110.672C109.818 110.081 109.637 109.568 109.516 109.133C109.447 109.429 109.266 109.942 108.973 110.672L107.421 114.611H111.612Z" fill="white"/>
<path d="M127.378 122.122C126.24 122.122 125.368 121.731 124.765 120.949V125.304L121.013 127V108.481H124.765V109.394C125.351 108.577 126.24 108.168 127.43 108.168C129.086 108.168 130.405 108.777 131.389 109.994C132.389 111.194 132.889 112.915 132.889 115.158C132.889 117.297 132.372 118.993 131.337 120.244C130.302 121.496 128.982 122.122 127.378 122.122ZM126.783 118.471C127.525 118.471 128.103 118.184 128.517 117.61C128.931 117.019 129.138 116.202 129.138 115.158C129.138 112.933 128.353 111.82 126.783 111.82C125.938 111.82 125.265 112.089 124.765 112.628V117.61C124.868 117.836 125.101 118.036 125.463 118.21C125.826 118.384 126.265 118.471 126.783 118.471Z" fill="white"/>
<path d="M142.489 122.122C141.35 122.122 140.479 121.731 139.875 120.949V125.304L136.123 127V108.481H139.875V109.394C140.462 108.577 141.35 108.168 142.54 108.168C144.196 108.168 145.516 108.777 146.499 109.994C147.5 111.194 148 112.915 148 115.158C148 117.297 147.482 118.993 146.447 120.244C145.413 121.496 144.093 122.122 142.489 122.122ZM141.893 118.471C142.635 118.471 143.213 118.184 143.627 117.61C144.041 117.019 144.248 116.202 144.248 115.158C144.248 112.933 143.463 111.82 141.893 111.82C141.048 111.82 140.376 112.089 139.875 112.628V117.61C139.979 117.836 140.212 118.036 140.574 118.21C140.936 118.384 141.376 118.471 141.893 118.471Z" fill="white"/>
<g filter="url(#filter0_f_66_1635)">
<path fill-rule="evenodd" clip-rule="evenodd" d="M103.633 74.6126C101.252 76.5435 98.5217 78.1206 95.4917 79.2354C80.6962 84.6792 64.3633 77.0414 59.011 62.176C56.3199 54.7018 56.9171 46.8235 60.0569 40.145C50.8129 47.6424 46.8438 60.4741 51.0999 72.2951C56.4522 87.1605 72.7852 94.7983 87.5806 89.3545C94.937 86.6479 100.528 81.2169 103.633 74.6126Z" fill="#FBFF22"/>
</g>
<path fill-rule="evenodd" clip-rule="evenodd" d="M103.633 74.6126C101.252 76.5435 98.5217 78.1206 95.4917 79.2354C80.6962 84.6792 64.3633 77.0414 59.011 62.176C56.3199 54.7018 56.9171 46.8235 60.0569 40.145C50.8129 47.6424 46.8438 60.4741 51.0999 72.2951C56.4522 87.1605 72.7852 94.7983 87.5806 89.3545C94.937 86.6479 100.528 81.2169 103.633 74.6126Z" fill="#FBFF22"/>
<defs>
<filter id="filter0_f_66_1635" x="9.39307" y="0.14502" width="134.24" height="130.965" filterUnits="userSpaceOnUse" color-interpolation-filters="sRGB">
<feFlood flood-opacity="0" result="BackgroundImageFix"/>
<feBlend mode="normal" in="SourceGraphic" in2="BackgroundImageFix" result="shape"/>
<feGaussianBlur stdDeviation="20" result="effect1_foregroundBlur_66_1635"/>
</filter>
</defs>
</svg>
