<svg width="200" height="200" viewBox="0 0 43 46" fill="none" xmlns="http://www.w3.org/2000/svg">
<g filter="url(#filter0_ii_129_6183)">
<path d="M0.202637 18.7369C0.26921 18.6279 0.334693 18.5176 0.401267 18.4097C0.604477 18.1003 0.911919 17.8905 1.25671 17.8261C1.60151 17.7617 1.95576 17.8479 2.24241 18.0658C2.51832 18.2821 2.78387 18.5137 3.03802 18.7595C3.66228 19.3867 4.42296 19.7306 5.29388 19.995C5.22839 19.8682 5.18474 19.7081 5.09416 19.6203C4.5834 19.1532 4.06172 18.7002 3.54004 18.2484C2.90923 17.7041 2.77609 16.9168 3.22464 16.2587C3.6088 15.6919 4.34438 15.5188 5.0385 16.031C5.09088 16.0701 5.14763 16.1045 5.27096 16.1875C5.23276 15.5946 5.30152 15.0634 5.73806 14.7563C5.99395 14.6022 6.27628 14.5069 6.56751 14.4765C6.75868 14.4398 6.95565 14.4717 7.12869 14.5673C7.30173 14.6629 7.44147 14.8171 7.52682 15.0065C7.68507 15.3409 7.72872 15.7393 7.8335 16.1508C7.93608 16.0808 8.0605 16.0037 8.17837 15.9136C8.67166 15.5389 9.47491 15.75 9.82961 16.2516C10.157 16.7188 10.1374 17.6342 9.72047 18.0433C9.19225 18.5555 8.61928 19.0109 8.08342 19.5089C7.95844 19.6469 7.8676 19.817 7.81931 20.0033C8.97834 19.7093 9.86235 18.9705 10.6918 18.1547C11.1971 17.6579 12.4293 17.7089 12.7327 18.5377C12.9204 19.0512 12.8494 19.7069 12.4904 20.1101C12.3594 20.2571 12.2132 20.3887 12.0473 20.5547C12.1859 20.6935 12.3136 20.8156 12.4358 20.9449C12.9116 21.4488 12.9749 22.3073 12.5766 22.8421C12.1619 23.4018 11.4437 23.4966 10.8577 23.0674C10.7675 23.001 10.6802 22.9298 10.5958 22.8539C9.72266 22.0678 9.72266 22.0678 8.74042 22.7105C8.89103 23.1966 9.17697 23.4433 9.61352 23.4445C10.0501 23.4456 10.4593 23.4445 10.8817 23.4445C11.6238 23.4445 12.1619 23.965 12.1651 24.6729C12.1717 25.6298 11.7155 26.1812 10.8937 26.2037C10.5663 26.212 10.2454 26.2037 9.87326 26.2037C9.87326 26.4409 9.87326 26.6283 9.87326 26.8156C9.87326 27.5081 9.45309 28.069 8.8703 28.1579C8.07251 28.2765 7.59885 27.7192 7.43296 27.1452C7.34165 26.8522 7.31219 26.5405 7.34674 26.2334C7.46788 25.4033 7.11319 24.8532 6.54677 24.3563C6.2652 24.6646 5.97162 24.967 5.70314 25.2931C5.64076 25.4036 5.61176 25.5325 5.6202 25.6619C5.61038 26.0615 5.6202 26.4622 5.6202 26.8619C5.62458 27.0316 5.59754 27.2007 5.54068 27.3589C5.48383 27.5171 5.39831 27.6613 5.2892 27.7829C5.18009 27.9046 5.04961 28.0012 4.9055 28.067C4.76139 28.1329 4.60658 28.1666 4.45025 28.1662C3.76269 28.1816 3.19081 27.6326 3.16243 26.9223C3.1537 26.7041 3.16243 26.4848 3.16243 26.2109C2.80992 26.2109 2.50106 26.2109 2.1922 26.2109C1.45335 26.2014 0.873828 25.5907 0.873828 24.8247C0.873828 24.0196 1.40533 23.4587 2.17802 23.4504C2.51852 23.4504 2.86558 23.4065 3.19954 23.4599C3.77578 23.5512 4.11192 23.2464 4.37603 22.7413C4.34548 22.714 4.31819 22.6844 4.28763 22.6607C3.61971 22.1472 3.06967 22.2243 2.45086 22.867C1.71964 23.6271 0.878194 23.5903 0.219007 22.3927V21.7702C0.466748 21.3504 0.714491 20.9306 0.930582 20.5666L0.219007 19.369L0.202637 18.7369Z" fill="white"/>
<path d="M22.1392 0.416714C22.8203 0.713157 23.1357 1.27996 23.1378 2.11355C23.307 2.01395 23.4314 1.93569 23.5602 1.86454C24.1212 1.55624 24.8393 1.73529 25.1547 2.25941C25.3431 2.55082 25.4221 2.9093 25.3756 3.26181C25.3292 3.61432 25.1608 3.93433 24.9048 4.15664C24.3656 4.63095 23.8298 5.10526 23.3005 5.59143C23.2092 5.6936 23.1543 5.82764 23.1455 5.96968C23.9411 5.71593 24.6734 5.38747 25.2758 4.78391C25.55 4.51892 25.8363 4.2692 26.1337 4.03569C26.7001 3.57798 27.4313 3.70012 27.9126 4.32028C28.276 4.78866 28.204 5.60565 27.7543 6.09301C27.6299 6.22818 27.4968 6.35387 27.3309 6.52225C27.4586 6.6349 27.5492 6.71316 27.6376 6.79261C28.1909 7.28826 28.3033 8.19419 27.8864 8.78352C27.4695 9.37285 26.7044 9.47601 26.0998 8.99933C25.8987 8.84742 25.709 8.67851 25.5323 8.49419C25.23 8.16218 24.9222 8.13846 24.5632 8.38155C24.3728 8.49918 24.1768 8.60565 23.976 8.70052C24.2652 9.18194 24.5992 9.46297 25.158 9.40487C25.6176 9.34923 26.0823 9.37245 26.5353 9.47364C27.2862 9.66099 27.5721 10.2183 27.4553 11.0887C27.3866 11.608 26.8441 12.2258 26.1795 12.1559C25.8979 12.125 25.6098 12.1559 25.2737 12.1559C25.2638 12.3527 25.2518 12.5223 25.2475 12.6918C25.2278 13.5693 24.7018 14.1266 23.9062 14.1148C23.1859 14.1053 22.7144 13.5444 22.7057 12.6918C22.6925 12.559 22.6925 12.425 22.7057 12.2922C22.8726 11.5049 22.4754 10.9748 22.0006 10.4922C21.9505 10.4622 21.8942 10.4465 21.8369 10.4465C21.7797 10.4465 21.7234 10.4622 21.6732 10.4922C21.2563 10.9013 20.8863 11.3223 20.9715 12.0337C21.017 12.4313 20.9872 12.8348 20.8842 13.2195C20.6943 13.9203 20.0798 14.2523 19.389 14.1053C18.8553 13.9867 18.4548 13.4246 18.4493 12.7725C18.4493 12.5851 18.4493 12.3966 18.4493 12.1559C18.087 12.1559 17.777 12.1559 17.4671 12.1559C17.1861 12.1623 16.9108 12.0697 16.6823 11.8919C16.4539 11.714 16.2846 11.4605 16.2 11.1693C16.0407 10.6606 16.2567 9.9942 16.7228 9.65388C16.8719 9.55481 17.0424 9.50002 17.2172 9.49499C17.6532 9.46286 18.0908 9.46286 18.5268 9.49499C19.0965 9.55309 19.3933 9.1938 19.7088 8.70526C19.3486 8.52502 19.0266 8.33767 18.6861 8.2108C18.5846 8.17404 18.4122 8.28787 18.2998 8.37443C18.0139 8.59735 17.7541 8.86653 17.4627 9.0776C16.8745 9.50329 16.2229 9.36337 15.7624 8.74321C15.376 8.22384 15.4295 7.48273 15.8944 6.97285C16.0265 6.82819 16.1673 6.69301 16.3037 6.5519C16.0974 6.30526 15.8595 6.09656 15.7122 5.82858C15.3596 5.19301 15.4721 4.51 15.9555 4.07008C16.4052 3.65862 17.1659 3.69063 17.6504 4.12344C18.362 4.75901 19.0463 5.44202 19.9325 5.79775C20.1202 5.87364 20.3068 5.95664 20.4934 6.0349L20.6026 5.93174C20.5122 5.76948 20.4049 5.61909 20.2828 5.48352C19.8233 5.07087 19.3475 4.67719 18.876 4.27878C18.1361 3.65506 18.063 2.7266 18.7025 2.05782C18.896 1.86011 19.1435 1.73626 19.4076 1.70503C19.6717 1.67379 19.9379 1.73686 20.166 1.8847C20.2905 1.96652 20.4116 2.05427 20.6026 2.18589C20.4705 1.29182 20.8722 0.784302 21.4866 0.415527L22.1392 0.416714Z" fill="white"/>
<path d="M42.1114 22.1163C41.9717 22.3534 41.8614 22.6095 41.6868 22.8028C41.4706 23.0436 41.1761 23.1827 40.8666 23.1902C40.5571 23.1977 40.2571 23.0731 40.0312 22.8431C39.8521 22.6832 39.688 22.5045 39.5412 22.3095C39.2203 21.8352 38.8034 21.7641 38.3014 21.8945C38.213 22.2811 38.2326 22.6155 38.5775 22.8882C38.7996 23.0843 39.0039 23.3031 39.1876 23.5416C39.7169 24.1629 39.7158 24.9645 39.1876 25.5265C38.6593 26.0886 37.9379 26.0945 37.3824 25.4684C37.126 25.1779 36.9852 25.2194 36.7276 25.4756C35.9222 26.2831 34.8985 25.9997 34.5449 24.9088C34.3943 24.4344 34.5449 24.0384 34.8101 23.6815C34.9688 23.4602 35.1521 23.2611 35.3558 23.0886C35.7519 22.7732 35.7563 22.3617 35.6832 21.8957C35.2783 21.7842 34.9378 21.8305 34.6649 22.2159C34.5085 22.4213 34.3353 22.6109 34.1476 22.7827C33.7776 23.1384 33.3607 23.2783 32.8652 23.1182C32.3425 22.9487 32.0947 22.5135 31.9649 22.0048C31.8557 21.572 32.074 21.1961 32.3261 20.8771C32.4438 20.7572 32.5755 20.6547 32.7179 20.5724C32.4385 20.117 32.1722 19.804 32.0336 19.4364C31.7346 18.6645 32.3272 17.8261 33.0868 17.7443C33.8748 17.6589 34.2928 18.1973 34.7238 18.7214C34.9912 19.0451 35.2619 19.1862 35.681 19.0498C35.741 18.6052 35.7901 18.1842 35.3907 17.7989C35.0504 17.4859 34.7723 17.101 34.5732 16.6676C34.2644 15.9277 34.869 15.0716 35.6079 14.9898C36.2376 14.9186 36.6359 15.2577 37.0179 15.7392C37.1412 15.6206 37.2416 15.5222 37.3366 15.4226C37.8921 14.8403 38.7019 14.8095 39.1985 15.355C39.7136 15.9206 39.6885 16.7483 39.1297 17.3708C38.8929 17.6364 38.6419 17.8878 38.4061 18.1546C38.3301 18.2271 38.2795 18.326 38.2632 18.4344C38.273 18.6431 38.3232 19.0273 38.3723 19.0273C38.6408 19.0427 38.9518 19.0392 39.1723 18.9004C39.4462 18.7285 39.6449 18.4166 39.8784 18.1676C40.6216 17.372 41.6246 17.589 42.0317 18.6336C42.0513 18.6711 42.0751 18.7057 42.1026 18.7368V19.3593L41.4282 20.4265L42.1026 21.4937L42.1114 22.1163Z" fill="white"/>
<path d="M19.6016 45.9505C19.3124 45.6766 18.9337 45.4584 18.7547 45.1205C18.4131 44.4707 18.7372 43.6418 19.3571 43.3335C19.6562 43.1877 19.9958 43.1741 20.304 43.2956C20.6122 43.4171 20.8647 43.6641 21.0081 43.9844C21.1516 44.3047 21.1746 44.6731 21.0724 45.0115C20.9702 45.3499 20.7507 45.6318 20.4605 45.7975C20.3656 45.8509 20.2695 45.9019 20.1746 45.954L19.6016 45.9505Z" fill="white"/>
<path d="M33.4546 40.2681C33.1894 40.593 32.9199 40.8871 32.6972 41.2167C32.6132 41.3353 32.635 41.5511 32.6175 41.723C32.5608 42.2744 32.587 42.8542 32.4331 43.3689C32.2508 43.9736 31.6157 44.2214 31.0023 44.072C30.5603 43.9629 30.1085 43.3606 30.0823 42.8376C30.0714 42.6195 30.0823 42.4013 30.0823 42.1262C29.7254 42.1262 29.4166 42.1262 29.1066 42.1262C28.3667 42.1143 27.7839 41.4954 27.7915 40.7353C27.8037 40.3693 27.9461 40.0228 28.1887 39.7686C28.4314 39.5145 28.7554 39.3726 29.0924 39.3728C29.4872 39.3477 29.8832 39.3505 30.2776 39.3811C30.8048 39.4463 31.07 39.1203 31.345 38.659C31.0056 38.4942 30.6978 38.3033 30.3628 38.206C30.2253 38.1657 30.0212 38.295 29.8771 38.3981C29.5497 38.6353 29.2659 38.9507 28.92 39.1392C28.3328 39.4582 27.7424 39.2483 27.3801 38.6732C27.2112 38.4112 27.1339 38.0924 27.1619 37.7741C27.1899 37.4557 27.3214 37.1586 27.5328 36.9361C27.654 36.8009 27.797 36.6871 27.9694 36.5282C27.8035 36.3408 27.642 36.1653 27.4914 35.9886C27.0799 35.5143 27.0548 34.81 27.4063 34.2408C27.6245 33.8851 28.4201 33.508 28.8676 33.8317C29.398 34.2135 29.876 34.6819 30.4119 35.0519C30.9477 35.4218 31.5393 35.7207 32.1057 36.0515L32.2257 35.9139C32.1657 35.7954 32.1319 35.6388 32.0424 35.5582C31.5338 35.0922 31.0132 34.6404 30.4937 34.1886C29.8957 33.6705 29.7298 32.8748 30.1194 32.2772C30.4774 31.7294 31.1715 31.3902 31.9158 31.9215C31.9813 31.9689 32.0489 32.0139 32.1799 32.1029C32.1854 31.4566 32.324 30.897 32.8347 30.597C33.0863 30.4575 33.3667 30.3905 33.6489 30.4025C34.2732 30.4309 34.666 31.0523 34.7774 32.1029C35.1757 31.8657 35.5315 31.5432 36.051 31.6938C36.5705 31.8444 36.899 32.1989 37.0136 32.7266C37.138 33.3029 36.9306 33.8056 36.505 34.1815C35.979 34.6475 35.4431 35.1017 34.9214 35.5724C34.8303 35.675 34.7775 35.8106 34.773 35.9531C35.5642 35.6839 36.3009 35.3661 36.9044 34.7673C37.1781 34.5017 37.4644 34.2519 37.7623 34.0191C38.3134 33.5756 39.1483 33.6788 39.5237 34.223C39.6289 34.3675 39.7066 34.5331 39.7524 34.7105C39.7982 34.8878 39.8111 35.0732 39.7904 35.256C39.7697 35.4388 39.7157 35.6153 39.6317 35.7752C39.5478 35.9352 39.4354 36.0754 39.3011 36.1878C39.1985 36.278 39.1068 36.3823 38.9977 36.4926C39.1603 36.6598 39.3 36.7962 39.4342 36.9408C39.8839 37.4341 39.9406 38.212 39.5674 38.7195C39.1308 39.3124 38.4684 39.4653 37.8943 39.0693C37.606 38.873 37.3369 38.6454 37.0911 38.3898C36.8564 38.1432 36.6349 38.1183 36.3609 38.2807C36.1285 38.4183 35.8862 38.5392 35.621 38.6815C35.9069 39.1297 36.1667 39.4487 36.6731 39.3847C37.0676 39.354 37.4635 39.3513 37.8583 39.3764C38.5961 39.3882 39.18 40.012 39.168 40.7697C39.1552 41.1356 39.0123 41.4819 38.7692 41.7356C38.5261 41.9893 38.2019 42.1306 37.8649 42.1297C37.5549 42.1297 37.2439 42.1297 36.8826 42.1297C36.8826 42.3503 36.8826 42.5222 36.8826 42.6942C36.875 43.51 36.3893 44.0471 35.6963 44.0969C34.8658 44.1586 34.3867 43.4614 34.3474 42.7238C34.331 42.5765 34.331 42.4276 34.3474 42.2803C34.4991 41.3981 34.0625 40.8266 33.4546 40.2681Z" fill="white"/>
<path d="M12.8539 34.931C13.2479 34.6785 13.4422 34.3547 13.3865 33.8638C13.3603 33.5538 13.3603 33.2418 13.3865 32.9318C13.4193 32.3591 13.8547 31.8125 14.3251 31.7295C15.0072 31.6109 15.5409 31.854 15.7559 32.4504C15.8294 32.7018 15.8551 32.9669 15.8312 33.2294C15.8159 33.5852 15.9403 33.7204 16.2601 33.6836C16.748 33.6291 17.19 33.7263 17.4715 34.2184C17.5928 34.4257 17.6629 34.6635 17.6749 34.9088C17.687 35.1541 17.6406 35.3986 17.5403 35.6188C17.444 35.8516 17.2845 36.0469 17.0832 36.1785C16.8819 36.3101 16.6484 36.3718 16.414 36.3551C16.1416 36.3678 15.8687 36.365 15.5966 36.3468C15.1382 36.284 14.9003 36.5698 14.6831 36.9267C14.909 37.3393 15.1928 37.5789 15.6533 37.5113C15.8982 37.4917 16.144 37.4917 16.3889 37.5113C17.0874 37.5231 17.6309 38.0366 17.6407 38.6887C17.6538 39.6694 17.2271 40.2208 16.4162 40.2682C16.2536 40.2789 16.0888 40.2824 15.9272 40.2895C15.9152 40.2895 15.9043 40.3038 15.8378 40.3464V40.8267C15.8378 41.6425 15.339 42.2164 14.6176 42.2259C13.989 42.233 13.4007 41.5725 13.3833 40.8302C13.3756 40.5492 13.3833 40.267 13.3833 39.986C13.3833 39.348 13.3833 39.3421 12.8518 38.9294C12.4992 39.1666 12.2591 39.4476 12.317 39.9563C12.3388 40.2665 12.3388 40.5781 12.317 40.8883C12.2949 41.2438 12.1509 41.5773 11.9135 41.823C11.6761 42.0686 11.3624 42.2086 11.0346 42.2152C10.4802 42.233 9.82101 41.5536 9.7839 40.9109C9.77299 40.72 9.7839 40.5279 9.7839 40.3405C9.42702 40.2575 9.07123 40.2302 8.7591 40.0903C8.22869 39.8532 7.886 39.1654 7.98968 38.6674C8.05434 38.3387 8.22039 38.0438 8.46035 37.8316C8.70031 37.6194 8.99977 37.5026 9.30915 37.5006C9.63656 37.5006 9.96398 37.5101 10.2914 37.4935C10.4232 37.4953 10.5519 37.4503 10.6581 37.3654C10.7956 37.2231 10.9997 36.9006 10.9746 36.8745C10.7847 36.6694 10.5631 36.4287 10.3198 36.3694C9.96834 36.2852 9.58745 36.3551 9.21966 36.3445C8.64669 36.3279 8.10536 35.8061 7.99186 35.1729C7.90564 34.6986 8.23087 34.0109 8.69143 33.7879C8.8777 33.7023 9.08028 33.6669 9.28187 33.6848C9.67367 33.7192 9.81991 33.5662 9.79263 33.1358C9.7588 32.5713 9.9858 32.103 10.4475 31.8587C11.3391 31.3903 12.3093 31.9524 12.3224 33.0291C12.3224 33.3101 12.3224 33.5923 12.3224 33.8733C12.3203 34.5101 12.3257 34.5208 12.8539 34.931Z" fill="white"/>
<path d="M11.8257 8.21306C11.9458 9.77235 10.6776 11.0138 9.29048 10.9806C8.62264 10.9595 7.98935 10.6533 7.52786 10.1284C7.06638 9.60348 6.81387 8.90211 6.82506 8.1763C6.83598 6.72967 7.93608 5.47868 9.40398 5.46564C10.6263 5.45497 12.032 6.8352 11.8257 8.21306Z" fill="white"/>
<path d="M28.6876 20.1514C28.7204 21.8886 27.4533 22.9143 26.1687 22.893C25.5015 22.8774 24.867 22.5758 24.4035 22.0541C23.94 21.5323 23.6852 20.8326 23.6946 20.1076C23.7088 18.5803 24.7969 17.4158 26.2124 17.3886C27.5733 17.3625 28.8382 18.6728 28.6876 20.1514Z" fill="white"/>
<path d="M23.1894 33.4107C22.5684 33.4107 21.9638 32.7064 21.9758 32.008C21.9878 31.2847 22.6066 30.6455 23.2854 30.6574C23.4519 30.6593 23.6164 30.6974 23.7691 30.7695C23.9218 30.8415 24.0598 30.946 24.1748 31.0768C24.2898 31.2076 24.3796 31.3621 24.4388 31.5312C24.4981 31.7003 24.5256 31.8805 24.5197 32.0613C24.4979 32.8594 23.9511 33.4107 23.1894 33.4107Z" fill="white"/>
<path d="M19.4379 25.6108C19.5121 26.4479 18.8169 27.0017 18.1566 27.0029C17.529 27.0029 16.8949 26.2831 16.9135 25.6096C16.9287 25.2434 17.0733 24.8978 17.3173 24.6446C17.5613 24.3915 17.8858 24.2504 18.2232 24.2507C18.9446 24.2578 19.4379 24.8128 19.4379 25.6108Z" fill="white"/>
</g>
<defs>
<filter id="filter0_ii_129_6183" x="-17.7974" y="-14.5845" width="67.9087" height="71.5386" filterUnits="userSpaceOnUse" color-interpolation-filters="sRGB">
<feFlood flood-opacity="0" result="BackgroundImageFix"/>
<feBlend mode="normal" in="SourceGraphic" in2="BackgroundImageFix" result="shape"/>
<feColorMatrix in="SourceAlpha" type="matrix" values="0 0 0 0 0 0 0 0 0 0 0 0 0 0 0 0 0 0 127 0" result="hardAlpha"/>
<feOffset dx="8" dy="-15"/>
<feGaussianBlur stdDeviation="15"/>
<feComposite in2="hardAlpha" operator="arithmetic" k2="-1" k3="1"/>
<feColorMatrix type="matrix" values="0 0 0 0 0 0 0 0 0 0 0 0 0 0 0 0 0 0 0.2 0"/>
<feBlend mode="normal" in2="shape" result="effect1_innerShadow_129_6183"/>
<feColorMatrix in="SourceAlpha" type="matrix" values="0 0 0 0 0 0 0 0 0 0 0 0 0 0 0 0 0 0 127 0" result="hardAlpha"/>
<feOffset dx="-18" dy="11"/>
<feGaussianBlur stdDeviation="15"/>
<feComposite in2="hardAlpha" operator="arithmetic" k2="-1" k3="1"/>
<feColorMatrix type="matrix" values="0 0 0 0 1 0 0 0 0 1 0 0 0 0 1 0 0 0 1 0"/>
<feBlend mode="normal" in2="effect1_innerShadow_129_6183" result="effect2_innerShadow_129_6183"/>
</filter>
</defs>
</svg>
