<svg width="44" height="44" viewBox="0 0 44 44" fill="none" xmlns="http://www.w3.org/2000/svg">
<path d="M31.6984 7.58992L31.57 14.5382C31.5517 15.4916 32.1567 16.7566 32.9267 17.3249L37.4734 20.7716C40.3884 22.9716 39.9117 25.6666 36.4284 26.7666L30.5067 28.6182C29.5167 28.9299 28.4717 30.0116 28.215 31.0199L26.8034 36.4099C25.685 40.6632 22.8984 41.0849 20.5884 37.3449L17.3617 32.1199C16.775 31.1666 15.3817 30.4516 14.2817 30.5066L8.15838 30.8182C3.77671 31.0382 2.53005 28.5082 5.39005 25.1716L9.02005 20.9549C9.69838 20.1666 10.01 18.6999 9.69838 17.7099L7.82838 11.7699C6.74672 8.28658 8.69005 6.36158 12.155 7.49825L17.5634 9.27658C18.48 9.56992 19.855 9.36825 20.625 8.79992L26.2717 4.72992C29.3334 2.54825 31.7717 3.83158 31.6984 7.58992Z" fill="white"/>
<path d="M39.3066 37.5285L33.7516 31.9735C33.22 31.4418 32.34 31.4418 31.8083 31.9735C31.2766 32.5051 31.2766 33.3851 31.8083 33.9168L37.3633 39.4718C37.6383 39.7468 37.9866 39.8751 38.335 39.8751C38.6833 39.8751 39.0316 39.7468 39.3066 39.4718C39.8383 38.9401 39.8383 38.0601 39.3066 37.5285Z" fill="white"/>
</svg>
