<svg width="16" height="16" viewBox="0 0 16 16" fill="none" xmlns="http://www.w3.org/2000/svg">
<path d="M7.99992 12.6668C10.5772 12.6668 12.6666 10.5775 12.6666 8.00016C12.6666 5.42283 10.5772 3.3335 7.99992 3.3335C5.42259 3.3335 3.33325 5.42283 3.33325 8.00016C3.33325 10.5775 5.42259 12.6668 7.99992 12.6668Z" fill="#FFD130"/>
<path d="M8.00008 15.3065C7.63341 15.3065 7.33342 15.0332 7.33342 14.6665V14.6132C7.33342 14.2465 7.63341 13.9465 8.00008 13.9465C8.36675 13.9465 8.66675 14.2465 8.66675 14.6132C8.66675 14.9798 8.36675 15.3065 8.00008 15.3065ZM12.7601 13.4265C12.5867 13.4265 12.4201 13.3598 12.2867 13.2332L12.2001 13.1465C11.9401 12.8865 11.9401 12.4665 12.2001 12.2065C12.4601 11.9465 12.8801 11.9465 13.1401 12.2065L13.2267 12.2932C13.4867 12.5532 13.4867 12.9732 13.2267 13.2332C13.1001 13.3598 12.9334 13.4265 12.7601 13.4265ZM3.24008 13.4265C3.06675 13.4265 2.90008 13.3598 2.76675 13.2332C2.50675 12.9732 2.50675 12.5532 2.76675 12.2932L2.85342 12.2065C3.11342 11.9465 3.53341 11.9465 3.79341 12.2065C4.05341 12.4665 4.05341 12.8865 3.79341 13.1465L3.70675 13.2332C3.58008 13.3598 3.40675 13.4265 3.24008 13.4265ZM14.6667 8.6665H14.6134C14.2467 8.6665 13.9467 8.3665 13.9467 7.99984C13.9467 7.63317 14.2467 7.33317 14.6134 7.33317C14.9801 7.33317 15.3067 7.63317 15.3067 7.99984C15.3067 8.3665 15.0334 8.6665 14.6667 8.6665ZM1.38675 8.6665H1.33341C0.966748 8.6665 0.666748 8.3665 0.666748 7.99984C0.666748 7.63317 0.966748 7.33317 1.33341 7.33317C1.70008 7.33317 2.02675 7.63317 2.02675 7.99984C2.02675 8.3665 1.75341 8.6665 1.38675 8.6665ZM12.6734 3.99317C12.5001 3.99317 12.3334 3.9265 12.2001 3.79984C11.9401 3.53984 11.9401 3.11984 12.2001 2.85984L12.2867 2.77317C12.5467 2.51317 12.9667 2.51317 13.2267 2.77317C13.4867 3.03317 13.4867 3.45317 13.2267 3.71317L13.1401 3.79984C13.0134 3.9265 12.8467 3.99317 12.6734 3.99317ZM3.32675 3.99317C3.15341 3.99317 2.98675 3.9265 2.85342 3.79984L2.76675 3.7065C2.50675 3.4465 2.50675 3.0265 2.76675 2.7665C3.02675 2.5065 3.44675 2.5065 3.70675 2.7665L3.79341 2.85317C4.05341 3.11317 4.05341 3.53317 3.79341 3.79317C3.66675 3.9265 3.49341 3.99317 3.32675 3.99317ZM8.00008 2.0265C7.63341 2.0265 7.33342 1.75317 7.33342 1.3865V1.33317C7.33342 0.966504 7.63341 0.666504 8.00008 0.666504C8.36675 0.666504 8.66675 0.966504 8.66675 1.33317C8.66675 1.69984 8.36675 2.0265 8.00008 2.0265Z" fill="#FFD130"/>
</svg>
