<svg width="28" height="29" viewBox="0 0 28 29" fill="none" xmlns="http://www.w3.org/2000/svg">
<g filter="url(#filter0_d_181_2483)">
<path d="M15 20.0418C18.889 20.0418 22.0417 16.8892 22.0417 13.0002C22.0417 9.11116 18.889 5.9585 15 5.9585C11.111 5.9585 7.95837 9.11116 7.95837 13.0002C7.95837 16.8892 11.111 20.0418 15 20.0418Z" stroke="#444E72" stroke-width="1.5" stroke-linecap="round" stroke-linejoin="round"/>
<path d="M22.735 20.7348L22.5941 20.594M22.5941 5.40567L22.735 5.26484L22.5941 5.40567ZM7.26496 20.7348L7.40579 20.594L7.26496 20.7348ZM15 2.25317V2.1665V2.25317ZM15 23.8332V23.7465V23.8332ZM4.25329 12.9998H4.16663H4.25329ZM25.8333 12.9998H25.7466H25.8333ZM7.40579 5.40567L7.26496 5.26484L7.40579 5.40567Z" stroke="#444E72" stroke-width="2" stroke-linecap="round" stroke-linejoin="round"/>
</g>
<defs>
<filter id="filter0_d_181_2483" x="0.166626" y="1.1665" width="26.6666" height="27.6665" filterUnits="userSpaceOnUse" color-interpolation-filters="sRGB">
<feFlood flood-opacity="0" result="BackgroundImageFix"/>
<feColorMatrix in="SourceAlpha" type="matrix" values="0 0 0 0 0 0 0 0 0 0 0 0 0 0 0 0 0 0 127 0" result="hardAlpha"/>
<feOffset dx="-2" dy="3"/>
<feGaussianBlur stdDeviation="0.5"/>
<feColorMatrix type="matrix" values="0 0 0 0 0 0 0 0 0 0 0 0 0 0 0 0 0 0 0.1 0"/>
<feBlend mode="normal" in2="BackgroundImageFix" result="effect1_dropShadow_181_2483"/>
<feBlend mode="normal" in="SourceGraphic" in2="effect1_dropShadow_181_2483" result="shape"/>
</filter>
</defs>
</svg>
