<svg width="29" height="12" viewBox="0 0 29 12" fill="none" xmlns="http://www.w3.org/2000/svg">
<path d="M4.13408 11.2563C6.82207 11.2563 8.41875 9.1543 8.41875 5.59473C8.41875 2.10107 6.71953 0.16748 4.19268 0.16748C1.89287 0.16748 0.266894 1.71289 0.266894 3.88086C0.266894 5.90967 1.73174 7.38916 3.7459 7.38916C4.98369 7.38916 5.98711 6.81787 6.48516 5.81445H6.60967C6.5877 8.26074 5.70146 9.67432 4.15605 9.67432C3.24785 9.67432 2.52275 9.18359 2.2957 8.39258H0.413379C0.720996 10.1211 2.20049 11.2563 4.13408 11.2563ZM4.2 5.89502C2.96953 5.89502 2.11992 5.04541 2.11992 3.82227C2.11992 2.64307 3.01348 1.74219 4.20732 1.74219C5.40117 1.74219 6.29473 2.65771 6.29473 3.85889C6.29473 5.03809 5.42314 5.89502 4.2 5.89502ZM11.4366 9.54248C12.1324 9.54248 12.6085 9.04443 12.6085 8.38525C12.6085 7.71875 12.1324 7.22803 11.4366 7.22803C10.7481 7.22803 10.2647 7.71875 10.2647 8.38525C10.2647 9.04443 10.7481 9.54248 11.4366 9.54248ZM11.4366 4.1958C12.1324 4.1958 12.6085 3.70508 12.6085 3.0459C12.6085 2.37939 12.1324 1.88867 11.4366 1.88867C10.7481 1.88867 10.2647 2.37939 10.2647 3.0459C10.2647 3.70508 10.7481 4.1958 11.4366 4.1958ZM19.6107 11H21.4198V8.98584H22.848V7.38916H21.4198V0.431152H18.7538C17.3183 2.61377 15.8168 5.02344 14.4472 7.41113V8.98584H19.6107V11ZM16.1977 7.33057C17.2304 5.55078 18.4535 3.60986 19.5375 1.96924H19.64V7.43311H16.1977V7.33057ZM26.8767 11H28.7663V0.431152H26.884L24.1228 2.36475V4.18115L26.7521 2.33545H26.8767V11Z" fill="#120D26"/>
</svg>
