<svg width="17" height="11" viewBox="0 0 17 11" fill="none" xmlns="http://www.w3.org/2000/svg">
<path fill-rule="evenodd" clip-rule="evenodd" d="M8.5881 2.28448C10.8069 2.28457 12.9409 3.13869 14.549 4.67028C14.67 4.78852 14.8636 4.78703 14.9829 4.66693L16.1404 3.4966C16.2008 3.43569 16.2344 3.35318 16.2339 3.26733C16.2334 3.18148 16.1988 3.09937 16.1377 3.03917C11.9171 -1.01306 5.25847 -1.01306 1.03781 3.03917C0.976667 3.09933 0.941977 3.18141 0.941413 3.26726C0.940849 3.35311 0.974458 3.43565 1.0348 3.4966L2.19266 4.66693C2.31185 4.78721 2.50555 4.7887 2.62657 4.67028C4.23484 3.13858 6.36906 2.28447 8.5881 2.28448ZM8.58808 6.09206C9.80717 6.09199 10.9828 6.54594 11.8864 7.36571C12.0086 7.48206 12.2012 7.47954 12.3203 7.36003L13.4765 6.1897C13.5374 6.12831 13.5712 6.04504 13.5703 5.9585C13.5694 5.87196 13.5339 5.78939 13.4718 5.72926C10.72 3.16485 6.45848 3.16485 3.70667 5.72926C3.64451 5.78939 3.60905 5.87201 3.60823 5.95857C3.60741 6.04513 3.64132 6.1284 3.70233 6.1897L4.85818 7.36003C4.97733 7.47954 5.16986 7.48206 5.29209 7.36571C6.19514 6.54648 7.3698 6.09257 8.58808 6.09206ZM10.9041 8.6539C10.9059 8.74068 10.8718 8.82434 10.81 8.88514L8.81003 10.9071C8.7514 10.9666 8.67147 11 8.58807 11C8.50467 11 8.42474 10.9666 8.36611 10.9071L6.36581 8.88514C6.30402 8.8243 6.27003 8.7406 6.27186 8.65383C6.27369 8.56705 6.31119 8.48487 6.37549 8.4267C7.65274 7.34443 9.52339 7.34443 10.8006 8.4267C10.8649 8.48492 10.9023 8.56712 10.9041 8.6539Z" fill="#120D26"/>
</svg>
