<svg width="24" height="24" viewBox="0 0 24 24" fill="none" xmlns="http://www.w3.org/2000/svg">
<path d="M10.1255 18.6423L9.06109 16.2027C8.7622 15.5254 8.16882 15.0299 7.44901 14.8566L4.85345 14.2401C2.63531 13.7159 2.38868 10.6491 4.50132 9.78405L5.60714 9.33493C5.76136 9.26763 5.93042 9.25729 6.08541 9.30649L15.2229 11.8652C15.5968 11.9724 15.8251 12.3501 15.7423 12.7267L14.5685 18.199C14.0986 20.4269 11.0371 20.7313 10.1255 18.6423Z" fill="white"/>
<path d="M15.3431 10.8782L9.35974 9.20636C8.68723 9.01914 8.63209 8.08187 9.27876 7.81974L13.405 6.12278C15.1567 5.40188 16.9945 6.9365 16.5977 8.78864L16.2651 10.329C16.171 10.7406 15.7564 10.9916 15.3431 10.8782Z" fill="white"/>
</svg>
